<?xml version="1.0" encoding="UTF-8"?>
<svg version="1.1" viewBox="0 0 1600 968" width="1280" height="1280" xmlns="http://www.w3.org/2000/svg">
<path transform="translate(0)" d="m0 0h1600v968h-1600v-968z" fill="#FBFEFE"/>
<path transform="translate(676,261)" d="m0 0c3.48 2.91 5.93 5.97 8 10v2c0.66-0.33 1.32-0.66 2-1 8.36-0.225 15.7 2.29 22 7.76 4.56 4.8 7 9.97 8.96 16.2 0.249 0.777 0.498 1.55 0.754 2.36 1.53 5.58 0.985 9.15-0.754 14.6-0.691 2.78-0.691 2.78-1 5 1.56 1.56 3.35 1.42 5.5 1.75 12.2 2.36 20.7 10.3 27.5 20.2 3 4.6 3 4.6 3 7h2v2c0.713-0.159 1.43-0.317 2.16-0.48 5.83-1.07 11.6-1.48 17.1 0.855 5.55 5.3 10.5 11.6 11.8 19.3-0.143 6-3.18 11.8-7.05 16.3h-2c-0.217 0.749-0.433 1.5-0.656 2.27-1.71 3.47-3.53 4.48-6.84 6.42-4 2.34-4 2.34-7.5 5.31 0.182 3.82 1.01 6.02 3 9.31 2.67 4.93 2.41 9.99 2.57 15.5 0.233 5.73 1.44 9.27 4.43 14.2 0.75 3.5 0.75 3.5 1 6-1.26 0.0825-2.52 0.165-3.81 0.25-3.84 0.403-6.99 1.36-10.6 2.81-6.6 2.5-12.6 3.3-19.4 1.02-5.37-2.46-9.3-4.93-12.3-10.1-0.449-2.75-0.63-5.42-0.746-8.2-0.253-2.78-0.888-4.79-1.94-7.36-1.86-5.16-1.23-9.35 0.688-14.4 1.97-3.54 4.12-7.12 7-10-0.993 0.17-1.99 0.34-3.01 0.516-13.7 1.95-25.6-1.39-37.4-8.09-3.13-1.72-6.29-3.1-9.6-4.43-0.227 0.908-0.454 1.82-0.688 2.75-1.5 3.73-2.98 5.08-6.31 7.25h-2c3.3 4.02 6.83 5.1 11.7 6.38 11 3.19 17.6 7.46 23.3 17.6 0.99 1.55 0.99 1.55 2 3.12 2.26 5.63 0.347 13.2-1 18.9-0.969 1.68-1.97 3.35-3 5-0.707 2.69-0.707 2.69-1 5 9.44 5.42 17.7 7.86 28.6 8.29 7.42 0.363 12.3 2.63 18.4 6.71 0.33 0.99 0.66 1.98 1 3 2 1.21 2 1.21 4 2 0.113-0.733 0.227-1.47 0.344-2.22 1.82-7.69 7.1-12.6 13.6-16.7 4.13-2.2 7.42-2.47 12.1-2.09 6.35 2.07 10.6 6.12 15 11 0.666-0.361 1.33-0.722 2.02-1.09 7.05-3.55 12.2-4.51 20-3.91 1.32 0.0683 2.63 0.137 3.99 0.207 10.8 0.588 10.8 0.588 12 1.79 0.289-1.28 0.578-2.56 0.875-3.88 1.84-5.68 5.55-8.98 9.85-13 4.44-4.22 4.78-7.75 5.52-13.6 0.947-3.24 1.87-3.92 4.76-5.59 2.57-0.157 2.57-0.157 5.42 0.145 1.02 0.0999 2.05 0.2 3.11 0.303 1.06 0.121 2.13 0.241 3.22 0.365 1.08 0.109 2.16 0.218 3.27 0.33 2.66 0.271 5.32 0.557 7.98 0.857-0.322-0.784-0.645-1.57-0.977-2.38-3.05-7.83-0.24-14.5 2.88-21.9 1.22-2.54 1.22-2.54 1.09-4.72-0.808 0.626-1.62 1.25-2.45 1.9-1.08 0.826-2.16 1.65-3.24 2.48-0.796 0.619-0.796 0.619-1.61 1.25-6.41 4.88-11.7 6.37-19.7 5.38-5.6-2.53-8.33-6.65-11-12-1.95-5.2-2.19-9.53-2-15-0.545-0.124-1.09-0.248-1.65-0.375-7.91-2.16-13.8-6.81-18.3-13.6-3.4 1.06-6.01 2.01-9 4-4.19 0.65-6.58 0.788-10.3-1.29-5.75-4.27-11.6-9.21-13.3-16.4-0.811-6.67-0.692-12.7 3-18.4 4.21-5.32 9.14-8.91 15.7-10.9 6.06-0.545 10.3 1.15 15 5 4.01 3.62 6.96 7.57 10 12 0.949-0.66 1.9-1.32 2.88-2 4.63-2.63 8.92-2.7 14.1-2 4.24 1.19 7.5 3.38 11 6 2.97 0.318 2.97 0.318 4.64-1.36 3.29-3.65 3.29-3.65 4.73-8.21-1.85-3.27-4.33-4.84-7.38-6.98-4.98-3.64-7.63-8.52-9-14.5-1.2-10.3 1.02-19.2 7.06-27.7 8.95-10.6 20.3-15.8 33.9-17.3 2.71-0.171 5.41-0.229 8.12-0.25 0.69-0.0206 1.38-0.0412 2.09-0.0625 4.49-0.0343 7.24 0.551 10.8 3.31 4.88 5.07 8.45 11.1 9.23 18.1-0.159 7.47-4.79 12.3-9.23 17.9-1.86 2.48-3.68 4.99-5.5 7.5-0.445 0.6-0.891 1.2-1.35 1.82-2.58 3.47-2.58 3.47-3.15 7.68 0.606 0.147 1.21 0.294 1.84 0.445 10.8 2.89 18.2 7.29 24.5 16.7 2.32 4.13 3.67 8.28 4.63 12.9l3-1c1.09-2.79 0.971-5.07 0.688-8-0.0321-6.49 2.63-11.8 6.31-17 6.6-6.07 13.4-9.53 22.4-9.31 5.56 0.678 9.78 3.11 13.4 7.31 4.63 6.54 4.63 6.54 3.81 11.6-1.45 6.54-5.75 11-10.7 15.4h-2c0.643 1.65 1.29 3.29 1.94 4.94 0.36 0.917 0.719 1.83 1.09 2.78 0.772 2.21 0.772 2.21 1.97 3.29 0.606 2.91 0.79 4.2 0 7-5.47 7.57-13 13-22.3 14.5-9.75 0.577-16.6-2.6-24.7-7.54-0.33-0.33-0.66-0.66-1-1-2.15 3.23-2.2 4.28-2 8 1.45 0.0928 1.45 0.0928 2.94 0.188 6.8 0.965 13.1 5.23 18.1 9.81 4.93 7.07 9.28 15.7 8.52 24.5-2.08 10-7.1 18.6-15.5 24.5 1.24 3.71 2.76 4.15 6.13 5.86 1.02 0.501 1.02 0.501 2.06 1.01 14.9 7.33 22.7 20.1 28.8 35.1 2.26 7.78 0.464 14.5-3.25 21.5-2.58 4.43-5.57 8.49-8.75 12.5 1.78 1.79 3.58 3.53 5.44 5.25 3.61 3.88 6.41 7.32 6.75 12.8-1.72 4.25-4.31 6.56-8.19 8.94-4.81 1.49-8.46 1.13-13-0.785-4.54-2.77-8.06-7.12-10.2-11.9-1.69-2.67-1.69-2.67-5.37-2.87-1.41 0.00531-2.82 0.0375-4.23 0.0938-0.699-0.00258-1.4-0.00516-2.12-0.00781-4.74 0.0887-7.87 1.15-12.1 3.51h-2c0.33 1.13 0.66 2.27 1 3.44 1.04 4.75 1.29 9.4 1.38 14.2 0.0258 0.724 0.0516 1.45 0.0781 2.2 0.0223 6.07-1.96 9.56-6.23 13.9-0.567 0.469-1.13 0.938-1.72 1.42-0.567 0.48-1.13 0.959-1.72 1.45-4.49 3.27-8.28 3.79-13.8 3.3-5.79-1.26-11.3-4.45-16-8-1.3-2.2-1.3-2.2-2-4h-2c-3.55-5.87-4.86-11.5-5.7-18.3-0.756-5.09-2.35-7.48-6.3-10.7-0.66-0.33-1.32-0.66-2-1v-2h-2c-9.11-12.1-12.6-24.4-10.5-39.3 0.453-2.57 0.953-5.12 1.54-7.67-2.31-0.33-4.62-0.66-7-1-0.203 0.944-0.203 0.944-0.41 1.91-1.85 7.36-4.87 13-11.4 17.3-7.38 3.57-14.6 1.5-22.2-0.113-4.11-1.44-6.15-3.53-8.24-7.3-0.247-0.578-0.495-1.15-0.75-1.75-1.32 0.33-2.64 0.66-4 1 0.474 0.413 0.949 0.825 1.44 1.25 1.74 1.95 2.06 3.23 2.56 5.75l1 1c0.659 3.06 1.24 6.12 1.81 9.19 0.584 3.06 1.24 5.96 2.28 8.9 2.35 7.49 1.12 16.2-0.0859 23.9-0.99 0.33-1.98 0.66-3 1-0.733 2.02-0.733 2.02-1 4h2c0.432 3.97 0.232 5.65-2 9.04-1.71 2.02-3.42 4.04-5.12 6.06-2.11 2.68-2.11 2.68-1.84 5.45 1.08 2.76 2.39 5.13 3.96 7.64 5.13 8.22 4.93 15.6 2.88 25.1-2.58 9.19-8.01 14.6-15.9 19.8-4.02 2.01-8.96 1.68-13.2 0.281-8.75-4.18-13.3-9.28-16.8-18.3-2.44-9.95-0.322-18.5 3-28h-2v-2c-0.568-0.182-1.14-0.364-1.72-0.551-3.78-1.23-7.44-2.48-11-4.2-3.59-1.38-4.74-1.74-8.25-0.25-1.11 0.911-2.19 1.85-3.25 2.81-5.76 5.18-12.4 7.86-20.1 8.34-8.58-0.515-16.8-4.87-22.6-11.2-5.51-8.64-8.5-17.8-6.62-28.1 0.766-3.16 1.71-6.17 2.81-9.23 1.11-2.75 1.11-2.75-0.188-5.69-2.5-0.737-4.89-1.31-7.44-1.81-6.88-1.53-13.1-3.56-18.6-8.19v-2c-0.605-0.229-1.21-0.459-1.83-0.695-2.78-1.67-3.49-3.27-4.86-6.18-0.416-0.864-0.833-1.73-1.26-2.62-3.4-8.11-2.17-15.5 0.949-23.5 1.22-2.36 2.51-4.63 3.91-6.89 1.22-2.36 1.68-4.5 2.09-7.11-2.61-1.52-4.68-2.14-7.69-2.75-9.18-2.21-16-8.83-20.8-16.7-1.01-1.72-2.01-3.44-3.02-5.16-3.2-5.18-7.07-9.12-11.7-13-3.36-2.88-5.09-4.91-5.75-9.44 0.347-6.48 2.16-11.1 6.7-15.8 1.48-1.29 1.48-1.29 2.99-2.6 0.767-0.675 0.767-0.675 1.55-1.36 1.25-1.1 2.5-2.18 3.76-3.26-0.688-0.71-0.688-0.71-1.39-1.43-5.52-5.95-9.01-11.4-10.2-19.5 0.325-5.62 3.06-11.6 7.05-15.5 0.498-0.42 0.995-0.84 1.51-1.27 3.21-2.87 4.11-6.01 5.44-10.1 2.4-7.21 5.16-13.5 11.9-17.6 8.19-3.79 16.4-5.15 25.2-2.55 8.84 3.33 8.84 3.33 11.5 5.95 3.14-3.29 3.14-3.29 4.25-7.56-1.7-3.31-3.74-3.75-7.05-5.21-3.96-2.21-6.49-5.66-9.2-9.23-0.598-0.784-1.2-1.57-1.81-2.38-2.94-6.49-3.83-12.7-1.97-19.6 1.1-2.79 2.71-4.84 4.78-6.98h-3v-3c-0.598-0.227-1.2-0.454-1.81-0.688-2.86-1.71-3.85-3.28-5.19-6.31 0.11-4.39 2.04-6.87 5-10 3.44-2.52 5.99-2.23 10-1z" fill="#E87C37"/>
<path transform="translate(473,951)" d="m0 0c0.66-0.33 1.32-0.66 2-1 2.12 0.938 2.12 0.938 4 2v6c0.629-0.0838 1.26-0.168 1.91-0.254 5.63-0.669 10.5-0.677 16.1 0.254v-2c0.566-0.205 1.13-0.41 1.71-0.621 1.1-0.404 1.1-0.404 2.22-0.816 0.731-0.267 1.46-0.534 2.21-0.809 1.83-0.608 1.83-0.608 2.85-1.75 1.42-0.0877 2.84-0.107 4.26-0.0977 0.905 0.0033 1.81 0.00661 2.74 0.01 0.985 0.0083 1.97 0.0166 2.99 0.0251 1.01 0.00379 2.02 0.00757 3.05 0.0115 4.33 0.0164 8.66 0.0444 13 0.0715 3.15 0.0181 6.31 0.0302 9.46 0.042 0.977 0.0083 1.95 0.0166 2.96 0.0251 0.917 0.0033 1.83 0.00661 2.78 0.01 0.803 0.00524 1.61 0.0105 2.43 0.0159 2.35-0.0505 2.35-0.0505 4.66-0.613 2.71-0.507 5.17-0.627 7.93-0.628 1.04-0.00282 2.08-0.00564 3.15-0.00854 1.13 0.00202 2.26 0.00405 3.42 0.00613 1.2-0.00175 2.4-0.0035 3.63-0.00531 3.28-0.00365 6.57-0.00279 9.85 3.79e-4 3.46 0.00254 6.93 1.79e-4 10.4-0.00139 5.84-0.00182 11.7 5.76e-4 17.5 0.00534 6.68 0.00539 13.4 0.00372 20-0.00183 5.78-0.0046 11.6-0.00515 17.3-0.00256 3.43 0.00153 6.86 0.00184 10.3-0.00154 14.4-0.0097 28.8 0.162 43.2 0.778 8.86 0.376 17.7 0.493 26.6 0.452 1.64-0.00385 3.28-0.00746 4.92-0.0109 17.8-0.0488 35.6-0.237 53.3-0.404 62.6-0.585 125-0.792 188-0.802 7.5-0.00128 15-0.00502 22.5-0.00974 10.2-0.00619 20.5-0.00606 30.7-0.00175 3.78 0.00145 7.56 8.11e-4 11.3-0.00184 17.8-0.0109 35.6 0.0525 53.3 0.582 1.03 0.0291 1.03 0.0291 2.09 0.0588 1.91 0.0555 3.82 0.119 5.73 0.184 1.07 0.0358 2.14 0.0716 3.25 0.109 2.52 0.203 2.52 0.203 4.52 1.2 1.73 0.247 1.73 0.247 3.5 0.5 3.5 0.5 3.5 0.5 5.5 1.5h4v2c3.27 0.0871 6.54 0.14 9.81 0.188 1.39 0.0377 1.39 0.0377 2.81 0.0762 0.893 0.00967 1.79 0.0193 2.71 0.0293 1.23 0.0236 1.23 0.0236 2.49 0.0476 2.68-0.42 3.4-1.35 5.18-3.34 3.17-0.893 5.67-1 9-1 2.42 2.5 3 3.46 3 7 0.906-0.0838 1.81-0.168 2.75-0.254 6.93-0.579 13.4-1 20.3 0.254 0.66 0.66 1.32 1.32 2 2-5.89 1.57-10.9 2-17 2v-2h-8v2h-2v-2h-3v3c0.846-0.0232 1.69-0.0464 2.56-0.0703 6.54-0.104 12.2 0.109 18.4 2.07v1c-63.7 0.0171-127 0.033-191 0.0423-0.943 1.38e-4 -1.89 2.76e-4 -2.86 4.18e-4 -20.5 0.00299-41 0.00576-61.5 0.0083-10.1 0.00125-20.1 0.00254-30.2 0.00387-1.5 1.96e-4 -1.5 1.96e-4 -3.03 3.96e-4 -32.4 0.00426-64.8 0.0118-97.2 0.021-33.3 0.00944-66.6 0.0156-99.9 0.0176-4.71 2.88e-4 -9.42 6.14e-4 -14.1 9.62e-4 -0.927 6.74e-5 -1.85 1.35e-4 -2.81 2.04e-4 -14.9 0.00118-29.8 0.00581-44.7 0.0118-15 0.0059-30 0.00813-45 0.00667-8.89-7.58e-4 -17.8 0.00124-26.7 0.0073-5.95 0.00378-11.9 0.00385-17.9 0.00103-3.38-0.0015-6.77-9.33e-4 -10.1 0.00305-13.9 0.0154-27.7-0.153-41.6-0.901-6.15-0.326-12.3-0.338-18.4-0.287-1.64 0.00677-1.64 0.00677-3.31 0.0137-2.6 0.0114-5.21 0.0276-7.81 0.0488v-9h6c-0.0206-0.969-0.0412-1.94-0.0625-2.94 0.0625-3.06 0.0625-3.06 1.06-4.06 1.43-0.261 2.87-0.46 4.31-0.625 0.78-0.0954 1.56-0.191 2.36-0.289 2.34-0.0865 4.08 0.348 6.32 0.914z" fill="#FDFCFF"/>
<path transform="translate(727,826)" d="m0 0c2.19-0.379 2.19-0.379 4-1v4h4c0.33 8.58 0.66 17.2 1 26h2v2h-2c0.33 0.99 0.66 1.98 1 3 0.66-0.99 1.32-1.98 2-3h2c-0.66-1.98-1.32-3.96-2-6h2c-0.33-0.928-0.66-1.86-1-2.81-1-3.19-1-3.19-1-6.19h-3c0.186-0.598 0.371-1.2 0.562-1.81 0.658-2.35 0.658-2.35-0.562-5.19 0.33-0.66 0.66-1.32 1-2h4v-5c1.46-0.081 2.92-0.139 4.38-0.188 0.812-0.0348 1.62-0.0696 2.46-0.105 0.714 0.0967 1.43 0.193 2.16 0.293 0.66 0.99 1.32 1.98 2 3 0.66-0.99 1.32-1.98 2-3 0.742 0.186 1.49 0.371 2.25 0.562 2.7 0.43 4.2 0.289 6.75-0.562v4h6c0.66-1.32 1.32-2.64 2-4 0.557 0.186 1.11 0.371 1.69 0.562 2.74 0.518 4.61 0.045 7.31-0.562h4v8c0.66-0.33 1.32-0.66 2-1-0.495-1.49-0.495-1.49-1-3v-4h4v4h6v-3h2c0.495 1.49 0.495 1.49 1 3h2v-3h2c0.495 1.49 0.495 1.49 1 3h17v-4c2.9-0.222 5.79-0.428 8.69-0.625 0.817-0.0645 1.63-0.129 2.47-0.195 4.54-0.294 7.65-0.21 11.8 1.82 2.24-0.287 2.24-0.287 4-1v4h6c0.33-0.99 0.66-1.98 1-3 1.98 1.98 1.98 1.98 4 4h-3v3c1.65 0.66 3.3 1.32 5 2 0.66-0.66 1.32-1.32 2-2v2c0.99 0.33 1.98 0.66 3 1 0.66-0.99 1.32-1.98 2-3v2c1.65 0.66 3.3 1.32 5 2 0.135 2.61 0.234 5.2 0.312 7.81 0.0628 1.11 0.0628 1.11 0.127 2.24 0.0488 2.16 0.0488 2.16-0.439 5.95-2.52 2.01-2.52 2.01-5 3 0.33 0.66 0.66 1.32 1 2 2.33 0.678 4.66 1.34 7 2 0.66 0.66 1.32 1.32 2 2 2.57 0.648 2.57 0.648 5 1v-4h-4v-5h-4v-3h3v-2h-3v-3h3v-4h2c0.99 1.98 0.99 1.98 2 4 0.33-1.32 0.66-2.64 1-4h2c0.103 0.639 0.206 1.28 0.312 1.94 0.227 0.681 0.454 1.36 0.688 2.06 0.99 0.33 1.98 0.66 3 1 0.73 1.85 0.73 1.85 1.19 4.06 0.159 0.733 0.317 1.47 0.48 2.22 0.11 0.566 0.219 1.13 0.332 1.71h2v3h3v3h3.38 5.62v-9h3v3h3v5c0.99-0.99 0.99-0.99 2-2v-3h3c0.33 3.63 0.66 7.26 1 11v-6h4c0.33 2.31 0.66 4.62 1 7 1.65 0.66 3.3 1.32 5 2-3.67 1.18-7.17 1.07-11 1 0.33 0.66 0.66 1.32 1 2 2.1 0.391 2.1 0.391 4.5 0.5 2.47 0.156 2.47 0.156 4.5 0.5 0.33 0.66 0.66 1.32 1 2h-10v2c-2.89 1.63-5.2 2.3-8.5 2.56-3.12 0.251-3.12 0.251-6.17 0.931-3.26 0.709-6.51 0.763-9.83 0.858-1.08 0.0347-1.08 0.0347-2.18 0.0702-1.52 0.0475-3.03 0.0927-4.55 0.136-2.32 0.0673-4.64 0.145-6.97 0.224-1.48 0.0449-2.95 0.0892-4.43 0.133-0.694 0.0239-1.39 0.0478-2.1 0.0724-3.07 0.0801-5.32-0.0042-8.27-0.986v-4c-3.69-0.368-7.37-0.717-11.1-1.06-1.04-0.104-2.08-0.208-3.15-0.314-5.49-0.505-10.4-0.721-15.8 0.377-0.33 1.65-0.66 3.3-1 5-36.9 1.1-36.9 1.1-52.6 1.12-1.51 0.00677-1.51 0.00677-3.06 0.0137-1.38-0.0029-1.38-0.0029-2.79-0.00586-1.18-0.00169-1.18-0.00169-2.38-0.00342-2.16-0.13-4.07-0.534-6.15-1.13v-5h-5v-4c-2.97-0.495-2.97-0.495-6-1v9c-2.64-0.33-5.28-0.66-8-1 0.33-1.32 0.66-2.64 1-4-2.97-0.495-2.97-0.495-6-1v-3h-2v5c-6.62 0.25-6.62 0.25-10-2v-2h-3c-1.87-5.85-3.4-11.6-4.53-17.7-0.436-2.15-0.974-4.23-1.6-6.33-0.875-3-0.875-3-0.875-5-1.98-0.66-3.96-1.32-6-2v-13h4c0.33-0.99 0.66-1.98 1-3 3.41-2.58 4.96-3.3 9-2z" fill="#FBFCFC"/>
<path transform="translate(851 537)" d="m0 0c9.38 5.31 14.3 12.8 18.5 22.7 1.07 4.21 1.07 8.13 1 12.5-6.45e-4 0.815-0.00129 1.63-0.00195 2.47-0.0447 6-0.0447 6-1.19 8.28-0.373 4.26-0.283 8.1 1 12.2 2.61 9.94 1.75 19.4-3.36 28.2-3.3 5.25-6.32 9.53-12.4 11.6-7.7 0.148-14.5-3.41-20-8.62-7.79-8.2-10.1-17.4-10.5-28.5-0.32-6.95-2.24-11.9-5.75-17.8-2.81-8.42-2.74-21.8 1-29.9 7.16-11.3 18.6-17 31.7-13z" fill="#E87C37"/>
<path transform="translate(1037 695)" d="m0 0c1.39 1.15 2.72 2.38 4.04 3.62 0.124-0.784 0.247-1.57 0.375-2.38 0.625-2.62 0.625-2.62 2.62-4.62h3c5.08 10.2 2.18 28.4 2.29 39.8 0.0175 1.65 0.0417 3.29 0.0731 4.94 0.181 10.1-0.0397 18.1-5.93 26.6-6.41 6.36-13 8.92-22.1 9.17-10.2-0.37-18.1-4.44-25.5-11.5-4.88-5.28-4.88-5.28-4.88-9.97 5.67 0.417 8.83 2.65 13.2 6 7.99 6.02 13.8 6.8 23.8 6 5.44-1.62 8.77-5.54 12-10 0.917-2.75 1.11-4.36 1.06-7.19-0.0206-1.26-0.0412-2.52-0.0625-3.81-4.56 2.54-4.56 2.54-8.96 5.34-5.94 4.05-10.3 4.86-17.5 4.47-4.29-0.996-7.71-2.6-11.5-4.81-0.934-0.541-0.934-0.541-1.89-1.09-7.08-4.55-10.6-11.3-12.7-19.3-1.6-9.15 1.53-16.9 6.55-24.6 11-12.4 27.8-16.6 42-6.62z" fill="#E87C37"/>
<path transform="translate(747,695)" d="m0 0c2.86-0.214 4.45-0.446 6.5-2.5 2.04-2.04 3.66-2.28 6.5-2.5 2 2 2 2 2.24 4.48-0.00666 1.57-0.00666 1.57-0.0135 3.16-1.51e-4 1.18-3.02e-4 2.36-4.58e-4 3.58-0.0103 1.28-0.0206 2.56-0.0313 3.88-0.00283 1.31-0.00566 2.61-0.00858 3.96-0.00764 3.48-0.0273 6.95-0.0494 10.4-0.0205 3.55-0.0296 7.09-0.0397 10.6-0.0215 6.96-0.0556 13.9-0.0977 20.9-5.71-0.797-5.71-0.797-8.31-2.62-4.85-2.48-9.7-0.924-14.8 0.477-9.06 2.47-15.1 2.19-23.4-2.15-6.84-4.19-11.4-9.59-14-17.3-1.99-9.31-1.13-17.4 3.59-25.7 4.5-6.4 9.92-11.2 17.6-13.3 8.78-1.51 16.8-0.388 24.3 4.6z" fill="#6FB9F5"/>
<path transform="translate(529 694)" d="m0 0c2.35 1.4 2.35 1.4 6.16 1.09 0.804-0.825 1.61-1.65 2.44-2.5 2.56-2.5 2.56-2.5 5.38-2.81 0.722 0.103 1.44 0.206 2.19 0.312 1.28 2.55 1.13 4.37 1.15 7.23 0.00638 1.09 0.0128 2.18 0.0193 3.31 0.00111 1.18 0.00223 2.37 0.00337 3.59 0.00499 1.82 0.00499 1.82 0.0101 3.67 0.00507 2.56 0.00741 5.13 0.00725 7.69 0.00219 3.93 0.0203 7.87 0.0393 11.8 0.00293 2.49 0.00492 4.98 0.00586 7.46 0.00719 1.18 0.0144 2.36 0.0218 3.58-0.00308 1.09-0.00615 2.19-0.00932 3.32 0.00143 0.964 0.00285 1.93 0.00432 2.92-0.247 2.44-0.247 2.44-2.25 5.44-6.51-0.615-6.51-0.615-8.81-2.44-0.588-0.773-0.588-0.773-1.19-1.56-0.66-0.66-1.32-1.32-2-2-0.99 0.619-1.98 1.24-3 1.88-7.07 4.01-15 5.39-23 3.7-6.66-2.14-12.8-6.22-16.6-12.1-4.01-7.92-6.03-15.3-3.6-24.2 3.9-10.1 9.56-17.3 19.2-22.3 8.47-2.66 16.3-1.6 23.8 2.91z" fill="#6FB9F5"/>
<path transform="translate(763 249)" d="m0 0c9.43 7.71 14.8 21.1 16.4 32.9-0.218 7.44-2.51 13.2-7 19-0.717 0.961-0.717 0.961-1.45 1.94-3.88 4.87-8.24 8.1-14.6 9.06-8.63 0.677-15.5-1.96-22.2-7.34-7.12-6.4-12.2-14.4-13.1-24.1-0.187-10.7 2.46-20.1 9.2-28.6 10.2-8.97 21.3-10.3 32.6-2.93z" fill="#E87C37"/>
<path transform="translate(819,694)" d="m0 0c5.36 3.88 10.8 8.12 12.7 14.7 1.45 10.3 1.09 22.3-4.68 31.3-5.38 6.83-11.5 10.2-20.1 11.4-10.2 0.548-18-3.16-25.9-9.39-5-4.64-7.68-10.2-8.24-16.9-0.241-10.5 1.78-18.5 9.11-26.3 10.9-9.33 24.4-12.2 37.1-4.82z" fill="#E87C37"/>
<path transform="translate(818 231)" d="m0 0c5.63 4.7 11.8 13.4 12.9 20.8 0.878 12.2-0.622 21.6-8.43 31.3-4.51 4.83-9.77 7.4-16.3 8.06-6.56-0.186-12.2-3.02-17.6-6.5-5.88-6.29-9.06-14.6-10.1-23.1 0.964-9.8 4.98-19.3 11.4-26.8 8.31-6.51 18.5-10.1 28.1-3.75z" fill="#E87C37"/>
<path transform="translate(572 964)" d="m0 0c0.983-0.00115 1.97-0.00231 2.98-0.0035 3.33-0.00267 6.67 0.00186 10 0.00629 2.4-4.36e-4 4.8-0.00131 7.19-0.00259 5.23-0.00178 10.5-4.22e-4 15.7 0.00364 7.78 0.00602 15.6 0.00634 23.3 0.00546 13.1-0.00132 26.2 0.00203 39.3 0.00802 13 0.00591 25.9 0.00976 38.9 0.0109 0.805 6.87e-5 1.61 1.37e-4 2.44 2.08e-4 4.09 3.38e-4 8.18 6.4e-4 12.3 9.27e-4 29 0.0021 58 0.00884 87 0.0183 28.2 0.00918 56.3 0.0163 84.5 0.0205 1.3 1.97e-4 1.3 1.97e-4 2.63 3.99e-4 8.71 0.00132 17.4 0.00259 26.1 0.00384 17.8 0.00254 35.5 0.00536 53.3 0.00835 1.22 2.06e-4 1.22 2.06e-4 2.47 4.16e-4 54.5 0.0092 109 0.0251 164 0.0419v2h-8v2h-593v-3c1.91 0.0174 1.91 0.0174 3.87 0.0352 1.67 0.00938 3.34 0.0185 5.01 0.0273 0.842 0.00838 1.68 0.0168 2.55 0.0254 0.806 0.00322 1.61 0.00645 2.44 0.00977 0.744 0.00524 1.49 0.0105 2.25 0.0159 4.37-0.264 8.58-1.25 13.2-1.24z" fill="#FBFEFF"/>
<path transform="translate(937,693)" d="m0 0c0.657 0.329 1.31 0.657 1.99 0.996 7.85 4.28 12.1 11.4 14.6 19.9 0.6 3.31 0.153 5.9-0.609 9.15-2.67 0.346-5.33 0.679-8 1-0.737 0.0889-1.47 0.178-2.23 0.269-6.46 0.714-12.8 0.882-19.3 0.856-1.46 0.0058-1.46 0.0058-2.96 0.0117-5.91-0.0079-11.6-0.375-17.5-1.14 0.732 7.3 2.99 10.6 8.61 15.4 5.78 3.95 11.5 4.81 18.4 3.63 5.53-2.54 10.2-6.01 14.4-10.4 2.54-2.6 3.21-3.01 6.56-3.62 0.66 0.99 1.32 1.98 2 3-3.52 7.88-9.73 13.7-17.5 17.5-7.33 2.76-13.2 3.35-20.6 0.5-8.79-4.12-15.1-8.52-19.1-17.6-3.19-8.86-1.82-17.5 1.85-26 4.18-7.88 10.7-13.3 19.2-16 7.13-1.34 13.7-0.893 20.1 2.61z" fill="#E87C37"/>
<path transform="translate(649 692)" d="m0 0c7.41 5.23 11 11.9 12.7 20.7 0.343 4.68 0.199 9.32 0 14-0.0367 0.917-0.0735 1.83-0.111 2.78-0.262 6.41-0.561 12.8-0.889 19.2-1.77 0.0541-3.54 0.0928-5.31 0.125-1.48 0.0348-1.48 0.0348-2.99 0.0703-2.7-0.195-2.7-0.195-5.7-2.2-0.327-2.46-0.465-4.67-0.477-7.13-0.0156-0.711-0.0312-1.42-0.0472-2.15-0.0476-2.28-0.0753-4.56-0.101-6.84-0.0367-2.26-0.0777-4.52-0.123-6.77-0.0268-1.4-0.0483-2.81-0.0635-4.21-0.0502-8.76-0.0502-8.76-2.81-16.9-2.31-2.3-2.31-2.3-5.81-2.5-3.66 0.514-5.55 1.44-8.56 3.5h-2c-5.67 14-4.14 30.1-4 45-2.69 1.35-4.09 0.744-7 0.125-0.887-0.183-1.77-0.366-2.69-0.555-2.31-0.57-2.31-0.57-4.31-1.57-0.127-7.64-0.214-15.3-0.275-22.9-0.0252-2.6-0.0593-5.2-0.103-7.8-0.0605-3.73-0.089-7.46-0.111-11.2-0.0258-1.17-0.0516-2.33-0.0782-3.53-3.78e-4 -1.08-7.55e-4 -2.16-0.00114-3.28-0.0111-0.953-0.0222-1.91-0.0336-2.89 0.601-2.41 0.601-2.41 2.99-4.27 2.61-1.14 2.61-1.14 4.89-0.746 0.732 0.322 1.46 0.645 2.22 0.977 3.69 1.41 5.67 2 9.5 0.625 1.2-0.557 2.39-1.11 3.62-1.69 6.03-2.3 12.1-1.07 17.7 1.96z" fill="#6FB9F5"/>
<path transform="translate(1592,200)" d="m0 0c2.1 3.14 2.25 3.85 2.25 7.43 0.00593 0.914 0.0119 1.83 0.018 2.77-0.00365 1.01-0.0073 2.02-0.0111 3.05 0.00599 1.61 0.00599 1.61 0.0121 3.25 0.0111 3.63 0.00776 7.26 0.00465 10.9 5e-3 2.61 0.0109 5.23 0.0176 7.84 0.0132 5.7 0.0189 11.4 0.0198 17.1 0.00137 8.48 0.0141 17 0.0293 25.4 0.0252 14.3 0.041 28.5 0.0516 42.8 0.0105 14.1 0.0251 28.2 0.0453 42.4 0.00125 0.877 0.0025 1.75 0.00378 2.66 0.00636 4.46 0.0128 8.91 0.0193 13.4 0.0457 31.6 0.0821 63.2 0.113 94.7 0.0302 30.7 0.0645 61.4 0.104 92 0.00123 0.945 0.00246 1.89 0.00373 2.86 0.0124 9.49 0.0248 19 0.0373 28.5 0.0255 19.3 0.0504 38.7 0.075 58 0.00113 0.889 0.00226 1.78 0.00343 2.69 0.0755 59.4 0.138 119 0.198 178h-2c-1.05-3.49-1.2-6.79-1.31-10.4-0.0205-0.649-0.0409-1.3-0.062-1.97-0.0663-2.19-0.124-4.39-0.181-6.58-0.021-0.78-0.0419-1.56-0.0636-2.36-0.589-22.5-0.525-44.9-0.513-67.4 0.0023-6.44-0.00125-12.9-0.00398-19.3-0.00435-11.9-0.00384-23.7-0.00109-35.6 0.00253-11 0.00316-21.9 0.00198-32.9-7.64e-5 -0.733-1.53e-4 -1.47-2.31e-4 -2.22-3.11e-4 -2.98-6.3e-4 -5.96-9.6e-4 -8.94-0.00305-27.9-3.04e-4 -55.7 0.0051-83.6 0.00473-24.6 0.00433-49.2-4.61e-4 -73.8-0.00539-27.8-0.00746-55.6-0.00439-83.3 3.21e-4 -2.98 6.33e-4 -5.96 9.43e-4 -8.94 7.91e-5 -0.733 1.58e-4 -1.47 2.4e-4 -2.22 0.00112-10.9-1.67e-4 -21.9-0.00272-32.8-0.0029-12.5-0.00206-25 0.00328-37.5 0.00258-6.34 0.00375-12.7 3.51e-4 -19-0.0176-35.7 0.423-71.4 1.13-107z" fill="#FCFCFC"/>
<path transform="translate(1597,200)" d="m0 0c2.1 3.15 2.25 3.85 2.25 7.43 0.00449 0.914 0.00899 1.83 0.0136 2.77-0.00788 1.51-0.00788 1.51-0.0159 3.05 0.00231 1.07 0.00462 2.14 0.00699 3.25 0.00534 3.63-0.00371 7.26-0.0126 10.9 8.71e-4 2.61 0.00262 5.23 0.00518 7.84 0.00415 5.7 8.48e-4 11.4-0.00728 17.1-0.012 8.48-0.0127 17-0.0109 25.4 0.00263 14.3-0.00407 28.5-0.016 42.8-0.0118 14.1-0.0195 28.2-0.0217 42.4-1.37e-4 0.877-2.75e-4 1.75-4.17e-4 2.66-6.77e-4 4.46-0.00128 8.91-0.00185 13.4-0.0042 31.6-0.0177 63.2-0.0366 94.7-0.0184 30.7-0.0325 61.4-0.041 92-2.63e-4 0.945-5.26e-4 1.89-7.97e-4 2.86-0.00264 9.49-0.00519 19-0.00768 28.5-0.00507 19.3-0.0107 38.7-0.0167 58-2.75e-4 0.889-5.49e-4 1.78-8.32e-4 2.69-0.0184 59.4-0.0501 119-0.0839 178-1.96-3.63-2.3-6.26-2.41-10.4-0.0191-0.649-0.0381-1.3-0.0578-1.97-0.0605-2.19-0.106-4.39-0.15-6.58-0.0379-1.6-0.0759-3.2-0.114-4.81-0.477-21.6-0.411-43.3-0.4-64.9 0.0023-6.44-0.00125-12.9-0.00398-19.3-0.00435-11.9-0.00384-23.7-0.00109-35.6 0.00253-11 0.00316-21.9 0.00198-32.9-7.64e-5 -0.733-1.53e-4 -1.47-2.31e-4 -2.22-3.11e-4 -2.98-6.3e-4 -5.96-9.6e-4 -8.94-0.00305-27.9-3.04e-4 -55.7 0.0051-83.6 0.00473-24.6 0.00433-49.2-4.61e-4 -73.8-0.00539-27.8-0.00746-55.6-0.00439-83.3 3.21e-4 -2.98 6.33e-4 -5.96 9.43e-4 -8.94 7.91e-5 -0.733 1.58e-4 -1.47 2.4e-4 -2.22 0.00112-10.9-1.67e-4 -21.9-0.00272-32.8-0.0029-12.5-0.00206-25 0.00328-37.5 0.00258-6.34 0.00375-12.7 3.51e-4 -19-0.0176-35.7 0.423-71.4 1.13-107z" fill="#FCFCFC"/>
<path transform="translate(1029 698)" d="m0 0c4.7 2.64 9.83 7.09 11.4 12.4 0.702 3.49 0.611 7.01 0.614 10.6 0.0122 0.751 0.0245 1.5 0.0371 2.28 0.011 4.17-0.0872 7.58-2.22 11.3-2.09 1.98-2.09 1.98-4.5 3.75-0.794 0.593-1.59 1.19-2.41 1.8-5.81 4.03-14.2 3.37-21.1 2.45-6.09-2.3-9.98-6.34-13-12-2.2-6.61-2-14.5 0.625-21 5.52-10.6 19.3-16.4 30.5-11.5z" fill="#FBFEFF"/>
<path transform="translate(1533 953)" d="m0 0c3.56 0.623 7.03 0.556 10.6 0.492 5.51-0.0489 10.7 0.183 16.2 1 3.15 0.261 6.31 0.495 9.46 0.719 2.54 0.281 2.54 0.281 4.54 1.28v2c1.26-0.0232 2.53-0.0464 3.83-0.0703 1.66-0.0188 3.32-0.037 4.98-0.0547 1.25-0.0251 1.25-0.0251 2.53-0.0508 0.802-0.00645 1.6-0.0129 2.43-0.0195 0.738-0.0105 1.48-0.0209 2.24-0.0317 1.99 0.227 1.99 0.227 4.99 2.23h-3v2l-2-1c-0.99-0.33-1.98-0.66-3-1v3h4c2.25 1 2.25 1 4 2h-3v2c-0.804-0.0206-1.61-0.0412-2.44-0.0625-2.5-0.234-2.5-0.234-3.56 1.06-2.96 0.101-5.89 0.136-8.85 0.129-0.93 0.00175-1.86 0.0035-2.82 0.00531-3.1 0.00443-6.21 0.00147-9.31-0.00189-2.17 6.74e-4 -4.33 0.00164-6.5 0.0029-4.56 0.00148-9.12-6.81e-4 -13.7-0.00534-5.79-0.00563-11.6-0.00247-17.4 0.00357-4.49 0.00366-8.98 0.00244-13.5-1.28e-4 -2.13-6.58e-4 -4.26 1.19e-4 -6.38 0.00248-10.9 0.00945-21.9-0.0954-32.8-0.52-1.37-0.0455-1.37-0.0455-2.78-0.0919-4.41-0.197-8.04-0.48-12.1-2.52v-2h20c-4.71-0.249-4.71-0.249-9.42-0.478-3.9-0.233-7.05-0.836-10.6-2.52v-2c0.569 0.00524 1.14 0.0105 1.72 0.0159 2.61 0.021 5.23 0.0339 7.84 0.0466 0.895 0.00838 1.79 0.0168 2.71 0.0254 5.02 0.0184 9.77-0.225 14.7-1.09v-2c3.17-1.06 5.59-1.19 8.92-1.28 1.17-0.0374 2.34-0.0748 3.55-0.113 1.23-0.0348 2.45-0.0696 3.72-0.105 9.35-0.27 20.9-3.11 30-0.992z" fill="#FDFCFF"/>
<path transform="translate(512,565)" d="m0 0h11v8h-2v-2h-4l1 2c2.53 0.656 2.53 0.656 5 1v2c2.31 0.33 4.62 0.66 7 1-0.75 2.44-0.75 2.44-2 5-2.12 0.812-2.12 0.812-4 1l1 2c0.743-0.165 1.49-0.33 2.25-0.5 2.75-0.5 2.75-0.5 6.75-0.5-0.495 1.49-0.495 1.49-1 3-1.33 0.333-2.67 0.667-4 1-0.495 1.49-0.495 1.49-1 3h-2v-3h-2c-0.495 1.49-0.495 1.49-1 3h-2c-0.0825 1.11-0.165 2.23-0.25 3.38-0.247 1.2-0.495 2.39-0.75 3.62-2 1.12-2 1.12-4 2-0.343 1.66-0.674 3.33-1 5-1.51 2.77-3.24 5.38-5 8-0.66 0.99-1.32 1.98-2 3h-2c-0.33 1.32-0.66 2.64-1 4h-3v7h-2v2h2v3h-2c-0.0619 0.928-0.124 1.86-0.188 2.81-0.812 3.19-0.812 3.19-3.19 5.12-2.62 1.06-2.62 1.06-5.62 0.0625-0.99 0.495-0.99 0.495-2 1h-4c-0.248 0.908-0.495 1.82-0.75 2.75-1.29 3.35-2.57 4.93-5.25 7.25-0.66-0.66-1.32-1.32-2-2-1.49 0.99-1.49 0.99-3 2-0.66-1.32-1.32-2.64-2-4h-2v-2h-2c-3.84-3.53-3.74-8.1-4-13v-3h-3v-2h3v-8h-2v-6h2c-0.0412-0.722-0.0825-1.44-0.125-2.19 0.134-3.02 0.877-5.08 2.12-7.81h2v14c1.65 0.33 3.3 0.66 5 1 0.66 0.33 1.32 0.66 2 1h4c0.33 0.99 0.66 1.98 1 3h-2c0.66 1.32 1.32 2.64 2 4h5c-0.33 1.32-0.66 2.64-1 4h4v4h2v-9h3c-0.103-0.99-0.206-1.98-0.312-3-0.0292-4.75 2.27-8.45 5.31-12h2v-2h3v-5c-0.99-0.495-0.99-0.495-2-1 1.98-0.495 1.98-0.495 4-1 0.33-1.98 0.66-3.96 1-6h4c0.66-3.3 1.32-6.6 2-10h3c-0.0116 0.626-0.0232 1.25-0.0352 1.9-0.00902 0.817-0.018 1.63-0.0273 2.48-0.0116 0.812-0.0232 1.62-0.0352 2.46-0.047 2.21-0.047 2.21 1.1 4.16 0.33-3.96 0.66-7.92 1-12-0.99-0.33-1.98-0.66-3-1h2v-4c-0.66-0.33-1.32-0.66-2-1h2v-3c-1.98-0.33-3.96-0.66-6-1 0.66-1.32 1.32-2.64 2-4-0.66-0.33-1.32-0.66-2-1 0.66-1.32 1.32-2.64 2-4z" fill="#FBFCFC"/>
<path transform="translate(1005 381)" d="m0 0c4.06 4.22 5.84 7.78 6.19 13.7-0.272 5.28-1.65 8.45-5.56 12-7.68 6.4-15.9 7.09-25.5 6.59-7.46-0.735-12-4.04-17.1-9.27-2.02-4.87-2.34-9.13-1.38-14.3 2.83-6 7.13-9.23 13-12 0.825-0.392 1.65-0.784 2.5-1.19 9.56-3.11 20.1-2.22 27.9 4.5z" fill="#E87C37"/>
<path transform="translate(1186,960)" d="m0 0h184c0.33 1.65 0.66 3.3 1 5-0.99-0.33-1.98-0.66-3-1 0.33-0.33 0.66-0.66 1-1-0.99-0.33-1.98-0.66-3-1v6c-23.2 0.0233-46.3 0.041-69.5 0.0518-10.8 0.00516-21.5 0.0122-32.3 0.0236-9.37 0.00995-18.7 0.0164-28.1 0.0186-4.97 0.00131-9.93 0.00439-14.9 0.0116-4.67 0.00676-9.34 0.00889-14 0.00738-1.72 2.76e-4 -3.44 0.00228-5.15 0.0061-2.34 0.00494-4.68 0.00379-7.01 0.00105-1.31 9.22e-4 -2.62 0.00184-3.97 0.00279-3.03-0.123-3.03-0.123-5.03-1.12v-2c6.93 0.495 6.93 0.495 14 1v-2h-12v-2h-2v-2z" fill="#FDFCFF"/>
<path transform="translate(680 672)" d="m0 0c0.998 0.0232 2 0.0464 3.02 0.0703 1.5 0.0271 1.5 0.0271 3.04 0.0547 0.771 0.0232 1.54 0.0464 2.34 0.0703 1.59 3.19 1.1 6.63 1.06 10.1-0.00451 0.754-0.00902 1.51-0.0137 2.29-0.0118 1.86-0.0297 3.73-0.0488 5.59 1.11 0.281 2.22 0.562 3.37 0.852 3.63 1.15 3.63 1.15 5.69 3.52 0.938 2.62 0.938 2.62 0.5 4.75-1.56 1.88-1.56 1.88-4.62 3.31-3.08 1.2-3.08 1.2-3.6 3.58-0.46 4.07-0.572 8.12-0.653 12.2-0.0208 0.881-0.0416 1.76-0.063 2.67-0.0652 2.8-0.124 5.6-0.183 8.41-0.0432 1.9-0.0868 3.81-0.131 5.71-0.107 4.66-0.208 9.32-0.307 14-1.79 0.027-3.58 0.0464-5.38 0.0625-0.998 0.0116-2 0.0232-3.02 0.0352-2.6-0.0977-2.6-0.0977-4.6-1.1-0.0553-1.05-0.111-2.1-0.168-3.18-0.208-3.92-0.419-7.84-0.632-11.8-0.0912-1.69-0.181-3.38-0.271-5.07-0.129-2.44-0.262-4.89-0.395-7.33-0.0386-0.746-0.0772-1.49-0.117-2.26-0.118-2.13-0.259-4.26-0.418-6.4-0.0541-0.734-0.108-1.47-0.164-2.22-0.517-5.41-2.01-7.05-5.84-10.8 0-3.07 0.541-4.42 2.44-6.81 1.56-1.19 1.56-1.19 3.56-1.19 0.049-1.2 0.098-2.41 0.148-3.65 0.075-1.58 0.151-3.15 0.227-4.73 0.0309-0.794 0.0619-1.59 0.0938-2.41 0.41-8.06 0.41-8.06 5.13-8.41z" fill="#6FB9F5"/>
<path transform="translate(562 672)" d="m0 0c0.98 0.00516 1.96 0.0103 2.97 0.0156 0.98-0.00516 1.96-0.0103 2.97-0.0156 2.53 0.266 2.53 0.266 4.53 2.27 0.241 3.05 0.241 3.05 0.227 7.02 2.92e-4 0.722 5.84e-4 1.44 8.85e-4 2.19-0.0014 2.39-0.017 4.78-0.0326 7.17-0.00373 1.66-0.00658 3.31-0.00858 4.97-0.00764 4.36-0.0273 8.73-0.0494 13.1-0.0204 4.45-0.0296 8.9-0.0397 13.4-0.0215 8.74-0.0556 17.5-0.0977 26.2-5.45 2.36-8.44 1.49-14 0-1.06-8.3-1.16-16.5-1.17-24.9-0.00322-1.42-0.00658-2.83-0.0101-4.25-0.00594-2.94-0.00784-5.89-0.00725-8.83 1.02e-4 -3.78-0.0137-7.55-0.0308-11.3-0.0111-2.91-0.0131-5.83-0.0126-8.74-0.00118-1.39-0.00561-2.79-0.0133-4.18-0.00975-1.94-0.00567-3.88-8.95e-4 -5.81-0.00143-1.1-0.00285-2.2-0.00432-3.34 0.339-3.57 1.2-4.49 4.78-4.87z" fill="#6FB9F5"/>
<path transform="translate(1063,628)" d="m0 0c1.32 1.32 2.64 2.64 4 4-0.99 0.33-1.98 0.66-3 1v2h2c0.495 1.49 0.495 1.49 1 3h-3v7c-6.52 4.85-12.5 4.51-20.4 4.31-1.18-0.00967-2.36-0.0193-3.58-0.0293-5.11-0.0654-10.1-0.23-15.2-0.865-3.75-0.678-3.75-0.678-6.84 0.582-1.67-0.318-3.34-0.655-5-1-2.65-0.147-5.28-0.255-7.93-0.316-0.748-0.0208-1.5-0.0416-2.27-0.063-2.37-0.0651-4.75-0.124-7.12-0.183-1.62-0.0432-3.23-0.0868-4.85-0.131-3.95-0.107-7.89-0.208-11.8-0.307v-2h-2c-0.0542-1.44-0.0929-2.87-0.125-4.31-0.0232-0.801-0.0464-1.6-0.0703-2.43 0.195-2.26 0.195-2.26 2.2-5.26 3.72-0.27 6.46-0.181 10 1v5h2c0.33-0.99 0.66-1.98 1-3v3h4c0.33-0.99 0.66-1.98 1-3 2.56-1.69 2.56-1.69 5-3 0.33 0.66 0.66 1.32 1 2 0.963-0.46 0.963-0.46 1.95-0.93 3.95-1.39 7.78-1.78 11.9-2.2 0.777-0.0864 1.55-0.173 2.36-0.262 4.62-0.489 9.13-0.7 13.8-0.613v4c-1.44 0.0271-2.87 0.0465-4.31 0.0625-1.2 0.0174-1.2 0.0174-2.43 0.0352-2.26-0.0977-2.26-0.0977-5.26-1.1v3c0.922-0.108 0.922-0.108 1.86-0.219 0.808-0.0928 1.62-0.186 2.45-0.281 0.801-0.0928 1.6-0.186 2.43-0.281 2.26-0.219 2.26-0.219 5.26-0.219 0.66-1.65 1.32-3.3 2-5h3c-0.33 2.64-0.66 5.28-1 8h2c0.33-1.32 0.66-2.64 1-4v2h2v2h2v-5h10c0.495 0.99 0.495 0.99 1 2 1.32-0.33 2.64-0.66 4-1v10c0.99-0.99 1.98-1.98 3-3h-2c0.33-0.99 0.66-1.98 1-3h2v-4c-0.99-0.495-0.99-0.495-2-1h2v-6z" fill="#FBFCFC"/>
<path transform="translate(524 701)" d="m0 0c4.21 3.32 8.73 7.93 9.89 13.3 0.684 6.4 0.771 11.9-2.52 17.6-3.12 3.42-6.59 6.72-11.3 7.27-6.9 0.25-11.5-0.5-16.7-5.27-4.05-4.28-5.34-8.19-5.56-14.1 0.256-5.22 0.982-9.04 4.56-12.9 6.24-5.63 13.1-9.52 21.6-5.88z" fill="#FBFEFF"/>
<path transform="translate(742 703)" d="m0 0c5.32 5.13 7 10.2 7.19 17.6-0.263 7.37-2.34 12.1-7.71 17.2-3.68 2.56-7.39 2.61-11.7 1.86-6.11-1.85-10.8-5.93-15-10.7-2.42-4.93-2.15-8.71-0.75-13.9 2.31-6.56 6.92-10.6 12.8-14.1 5.57-1.87 10.4-1.01 15.2 2.06z" fill="#FBFEFF"/>
<path transform="translate(879,694)" d="m0 0c3.92 3.42 7.47 8.38 8.51 13.5 0.569 8.92 0.604 17.8 0.553 26.7-0.00503 1.54-0.00959 3.07-0.0137 4.61-0.0109 3.71-0.0281 7.43-0.0488 11.1-3 1-3 1-5.12 0.5-2.35-1.88-2.38-3.23-2.73-6.13-0.414-6.63-0.0934-13.3 0.0669-20 0.101-8.53-0.31-16-5.71-22.9-3.12-3.12-5.43-3.67-9.69-3.81-5.08 0.0414-8.51 1.79-12.8 4.31-1.07 0.437-1.07 0.437-2.17 0.883-1.97 0.952-1.97 0.952-2.55 2.89-1.46 11.4-1.36 22.8-1.25 34.2 0.00846 1.14 0.0169 2.29 0.0256 3.47 0.0116 1.04 0.0232 2.07 0.0352 3.14-0.0977 2.37-0.0977 2.37-1.1 3.37-2.44 0.188-2.44 0.188-5 0-2.61-2.61-2.27-3.74-2.32-7.37-0.0199-1.12-0.0397-2.24-0.0602-3.4-0.0173-1.82-0.0173-1.82-0.035-3.68-0.0194-1.24-0.0387-2.48-0.0587-3.76-0.0497-3.3-0.091-6.6-0.128-9.89-0.04-3.36-0.0911-6.73-0.141-10.1-0.0962-6.6-0.181-13.2-0.258-19.8 1.85-0.625 1.85-0.625 4-1 0.804 0.66 1.61 1.32 2.44 2 2.35 2.27 2.35 2.27 5.06 1.94 2.74-1.03 5.01-2.41 7.5-3.94 8.09-2.45 15.7-1.15 23 3z" fill="#E87C37"/>
<path transform="translate(618 439)" d="m0 0c4.59 4.47 7.75 7.79 8.19 14.4-0.256 4.67-1.62 7.29-4.95 10.5-0.86 0.729-0.86 0.729-1.74 1.47-0.949 0.804-1.9 1.61-2.88 2.44-6 3.07-13.6 2.43-20.1 1.56-5.18-2.14-8.97-5.27-12-10-0.802-6.01 0.184-9.37 3.65-14.3 6.75-8.45 20.3-10.4 29.8-6.12z" fill="#E87C37"/>
<path transform="translate(848,503)" d="m0 0c0.66 1.32 1.32 2.64 2 4h2c0.66-1.32 1.32-2.64 2-4 0.147 1.14 0.147 1.14 0.297 2.31 0.988 6.82 2.52 12.6 5.7 18.7h-7c0.495 1.49 0.495 1.49 1 3 0.99-0.33 1.98-0.66 3-1v4h2v4h2c-1 3-1 3-2 5h2c-0.33 0.99-0.66 1.98-1 3-0.206-0.639-0.413-1.28-0.625-1.94-1.26-2.41-1.26-2.41-4.44-2.69-1.45-0.186-1.45-0.186-2.94-0.375-0.33-0.66-0.66-1.32-1-2h4v-3c-0.639-0.144-1.28-0.289-1.94-0.438-2.06-0.562-2.06-0.562-3.06-1.56-0.495 2.48-0.495 2.48-1 5-0.99 0.159-1.98 0.317-3 0.48-7.49 1.29-14 2.63-20 7.52-0.597 0.473-1.19 0.946-1.81 1.43-1.42 1.16-2.81 2.36-4.19 3.57-1-2-1-2-1-4-0.66 0.66-1.32 1.32-2 2l-2 1v-31c0.33 0.66 0.66 1.32 1 2h2c0.99 1.49 0.99 1.49 2 3 0.33-0.99 0.66-1.98 1-3h2c3 3.46 3 3.46 3 6 0.99-0.33 1.98-0.66 3-1 0.66 0.99 1.32 1.98 2 3 0.742-0.33 1.49-0.66 2.25-1 2.75-1 2.75-1 6.75-1v3h6c-0.33-1.98-0.66-3.96-1-6-0.99 0.247-0.99 0.247-2 0.5-3.73 0.622-7.22 0.564-11 0.5 0.66-1.32 1.32-2.64 2-4 0.66 0.33 1.32 0.66 2 1 0.99-0.33 1.98-0.66 3-1-2.97-0.33-5.94-0.66-9-1-0.33-1.65-0.66-3.3-1-5h-6v-1c1.98-0.33 3.96-0.66 6-1v-3h-6v-1c4.29-0.66 8.58-1.32 13-2v2c-0.99 0.33-1.98 0.66-3 1h14c0.33-1.32 0.66-2.64 1-4z" fill="#FDFCFF"/>
<path transform="translate(1109,690)" d="m0 0c1.22 4.96 0.705 7.78-1.21 12.5-0.365 0.909-0.365 0.909-0.737 1.84-0.794 1.96-1.61 3.92-2.43 5.87-0.557 1.36-1.11 2.72-1.67 4.08-3.35 8.16-6.91 16.2-10.8 24.1-3.1 6.34-5.83 12.8-8.43 19.4-1.74 4.28-3.45 7.87-6.74 11.2-2.75 0.312-2.75 0.312-5 0-0.33-0.66-0.66-1.32-1-2 0.878-2 1.85-3.95 2.88-5.88 3.64-6.89 4.97-12.3 4.12-20.1-1.45-3.39-1.45-3.39-2.74-5.59-1.62-3.1-2.81-6.32-4.01-9.6-1.76-4.8-3.54-9.59-5.41-14.3-0.366-0.938-0.733-1.88-1.11-2.84-0.722-1.85-1.45-3.69-2.19-5.53-0.33-0.85-0.661-1.7-1-2.58-0.297-0.752-0.594-1.5-0.9-2.28-0.714-2.5-0.752-4.65-0.639-7.24 2.25 0.0625 2.25 0.0625 5 1 4.09 6.19 6.79 13.1 9.69 19.9 0.498 1.14 0.996 2.28 1.51 3.46 2.53 5.94 4.46 11.1 4.8 17.6h2v2c2.51-2.24 3.74-4.26 5.02-7.36 0.361-0.862 0.722-1.72 1.09-2.61 0.377-0.917 0.753-1.83 1.14-2.78 0.798-1.9 1.6-3.8 2.4-5.7 0.395-0.939 0.791-1.88 1.2-2.85 1.61-3.77 3.3-7.49 5.03-11.2 0.534-1.14 1.07-2.29 1.62-3.47 4.49-9.03 4.49-9.03 8.51-9.03z" fill="#E87C37"/>
<path transform="translate(575,817)" d="m0 0h1c0.33 2.64 0.66 5.28 1 8h4c0.33-0.66 0.66-1.32 1-2 2.52 1.97 2.99 2.97 3.69 6.19 0.103 0.928 0.206 1.86 0.312 2.81 0.33-0.66 0.66-1.32 1-2h3c2 3 2 3 2 6h2c0.24 0.646 0.48 1.29 0.727 1.96 1.07 2.23 1.07 2.23 3.3 2.62 0.776 0.0374 1.55 0.0748 2.35 0.113 2.36 0.138 4.44 0.263 6.72 0.891 2.93 0.649 5.14-0.578 7.9-1.58 3.11 0 5.94 0.456 9 1v3c0.66-1.98 1.32-3.96 2-6 0.495 1.49 0.495 1.49 1 3h2c1.31 4.67 1.06 8.31 0 13-3.82 3.7-8.9 3.85-14 4-6.24-0.201-10.6-2.03-16.2-4.73-3.23-1.49-6.48-2.58-9.88-3.59-1.88-0.676-1.88-0.676-4.88-2.68v-2h-2c-0.986-2.06-1.96-4.12-2.94-6.19-0.545-1.15-1.09-2.3-1.65-3.48-1.98-4.69-2.54-8.59-2.47-13.6 0.00902-0.883 0.018-1.77 0.0273-2.68 0.0116-0.664 0.0232-1.33 0.0352-2.01z" fill="#FBFCFC"/>
<path transform="translate(729 580)" d="m0 0c4.74 3.01 7.98 7.44 9.75 12.8 0.798 6.42 0.219 11-3.57 16.3-3.91 4.61-7.24 6.48-13.2 7.07-3.22-0.0415-5.02-0.572-7.56-2.56-5.07-5.43-5-10.5-4.88-17.7 0.436-5.25 2.38-8.68 6.26-12.1 4.3-2.35 8.31-4.13 13.2-3.75z" fill="#E87C37"/>
<path transform="translate(875,217)" d="m0 0c4.93 4.93 6.77 9.05 7.31 15.9-0.17 5.58-2.1 9.67-5.75 13.9-4.13 3.53-6.86 4.71-12.5 4.57-3.7-0.683-6.5-2.72-9.1-5.39-3.12-4.87-2.8-10.4-2-16 2.85-6.46 7.33-10.9 13.4-14.4 3.58-0.874 5.27-0.27 8.56 1.38z" fill="#E87C37"/>
<path transform="translate(593,690)" d="m0 0c2.16 1.18 2.16 1.18 4 3 0.481 2.49 0.481 2.49 0.454 5.48-3.02e-4 1.12-6.04e-4 2.24-9.16e-4 3.4-0.0206 1.21-0.0413 2.42-0.0626 3.66-0.00566 1.24-0.0113 2.48-0.0172 3.75-0.0186 3.29-0.0545 6.58-0.0988 9.87-0.041 3.36-0.0592 6.72-0.0793 10.1-0.0441 6.59-0.111 13.2-0.195 19.8-1.98 0.0269-3.96 0.0463-5.94 0.0625-1.1 0.0116-2.2 0.0232-3.34 0.0352-2.72-0.0977-2.72-0.0977-3.72-1.1-0.109-1.7-0.149-3.41-0.161-5.11-0.00961-1.09-0.0192-2.18-0.0291-3.31-0.00425-1.19-0.0085-2.38-0.0129-3.6-0.0057-1.21-0.0114-2.42-0.0173-3.67-0.00947-2.57-0.016-5.14-0.0198-7.71-0.00971-3.94-0.0407-7.88-0.0723-11.8-0.00653-2.49-0.0118-4.98-0.0156-7.48-0.0123-1.18-0.0247-2.37-0.0374-3.59 3e-3 -1.1 6e-3 -2.2 0.00909-3.33-0.00365-0.967-0.00729-1.93-0.011-2.93 0.367-2.44 0.367-2.44 1.71-4.25 2.6-1.86 4.56-1.57 7.66-1.19z" fill="#6FB9F5"/>
<path transform="translate(375,960)" d="m0 0v2h-5v3h5v2c-4.41 1.09-8.72 1.15-13.2 1.15-0.815 0.00336-1.63 0.00672-2.47 0.0102-2.69 0.00947-5.37 0.0115-8.06 0.0125-1.87 0.00321-3.74 0.00658-5.61 0.0101-3.91 0.00598-7.82 0.00784-11.7 0.00725-5.02-1.02e-4 -10 0.0136-15.1 0.0308-3.86 0.0111-7.71 0.0131-11.6 0.0126-1.85 0.00118-3.7 0.00561-5.55 0.0133-2.58 0.00977-5.17 0.00694-7.75 8.95e-4 -0.767 0.00562-1.53 0.0112-2.32 0.017-3.76-0.0224-5.44-0.118-8.65-2.26h3v-4c-0.99-0.33-1.98-0.66-3-1 2.83-0.943 4.7-1.16 7.63-1.22 0.946-0.0231 1.89-0.0463 2.87-0.0701 1.54-0.0298 1.54-0.0298 3.12-0.0603 1.61-0.0353 1.61-0.0353 3.26-0.0714 3.52-0.0738 7.04-0.139 10.6-0.202 1.19-0.0228 2.38-0.0456 3.6-0.0691 20.3-0.379 40.6-0.195 61 0.694z" fill="#FDFCFF"/>
<path transform="translate(636,499)" d="m0 0c3.35 2.09 4.81 3.72 7 7 0.467 4.12 0.302 6.42-1.62 10.1-4.86 5.88-8.37 8.53-15.9 9.72-4.96 0.307-8.32-1.06-12.3-3.85-2.73-2.57-3.07-3.42-3.44-7.19 0.371-4.53 1.37-7.36 4.31-10.8 2.27-1.73 4.38-2.76 7-4 1.14-0.65 1.14-0.65 2.31-1.31 4.31-1.1 8.37-0.681 12.7 0.312z" fill="#E87C37"/>
<path transform="translate(781,724)" d="m0 0h48c0.495 1.98 0.495 1.98 1 4-0.485 0.34-0.969 0.681-1.47 1.03-3.9 2.82-7.34 5.72-10.7 9.22-4.15 4.24-7.27 5.5-13.2 6.06-8.7-0.738-15.5-4.08-21.7-10.3-1.85-3.77-2-5.79-2-10z" fill="#FBFEFE"/>
<path transform="translate(814 699)" d="m0 0c5.32 3.12 8.92 6.87 11.4 12.6v4c-0.917 0.0251-1.83 0.0501-2.78 0.0759-3.45 0.0959-6.9 0.195-10.3 0.296-1.48 0.0429-2.97 0.0846-4.45 0.125-2.15 0.0587-4.3 0.121-6.45 0.186-0.696 0.0207-1.39 0.0413-2.11 0.0626-4.73 0.161-9.38 0.562-14.1 1.25-0.593 0.00121-1.19 0.00242-1.8 0.00366-2-2-2-2-2.27-4.38 0.478-4.59 3.03-7.48 6.27-10.6 8.77-5.53 17-8.33 26.6-3.56z" fill="#FBFEFE"/>
<path transform="translate(934 699)" d="m0 0c4.61 3.25 8.88 7.31 11.9 12.1 0.0918 2.64 0.0918 2.64 0 5-0.922 0.0251-1.84 0.0501-2.79 0.0759-3.46 0.0958-6.92 0.195-10.4 0.296-1.49 0.043-2.98 0.0847-4.47 0.125-2.16 0.0586-4.31 0.121-6.47 0.186-0.696 0.0199-1.39 0.0399-2.11 0.0604-3.75 0.125-7.41 0.426-11.1 0.979-3.65 0.277-3.65 0.277-5.38-1.21-0.42-0.501-0.839-1-1.27-1.52 1.37-6.43 3.28-10.1 8.83-13.8 7.37-4.14 15.4-6.72 23.2-2.28z" fill="#FBFEFE"/>
<path transform="translate(986,691)" d="m0 0c0.812 1.62 0.812 1.62 1 4-3.2 5.12-6.32 6.91-12 8.75-2.24 1.16-2.24 1.16-3.25 3.94-0.794 3.58-0.894 6.65-0.797 10.3 0.122 7.02-0.0969 14-0.438 21-0.0478 0.986-0.0956 1.97-0.145 2.99-0.116 2.34-0.234 4.67-0.355 7.01-5.75 0.125-5.75 0.125-8-1 0.0921-7.65 0.199-15.3 0.317-23 0.0384-2.61 0.0732-5.21 0.104-7.82 0.0455-3.74 0.104-7.48 0.164-11.2 0.0116-1.17 0.0231-2.34 0.035-3.55 0.0199-1.08 0.0397-2.16 0.0602-3.28 0.0133-0.955 0.0266-1.91 0.0404-2.89 0.278-2.29 0.278-2.29 2.28-4.29 2.93 0.367 3.86 0.864 6 3 2.96-0.234 4.61-0.686 6.94-2.56 2.76-1.92 4.78-1.66 8.06-1.44z" fill="#E87C37"/>
<path transform="translate(82.4 960)" d="m0 0c0.751-1.46e-4 1.5-2.92e-4 2.28-4.43e-4 2.48 6.97e-4 4.97 0.00848 7.45 0.0163 1.72 0.00187 3.44 0.00329 5.17 0.00429 4.53 0.00382 9.06 0.0136 13.6 0.0247 4.63 0.0102 9.25 0.0148 13.9 0.0198 9.07 0.0107 18.1 0.0278 27.2 0.0488 0.0424 2.33 0.0409 4.67 0 7-1.71 1.71-3.86 1.12-6.14 1.12-0.735-0.0036-1.47-0.00719-2.23-0.0109-0.771 1.46e-4 -1.54 2.92e-4 -2.34 4.43e-4 -2.56-6.99e-4 -5.12-0.00849-7.68-0.0163-1.77-0.00186-3.54-0.00329-5.31-0.00429-4.67-0.00383-9.33-0.0137-14-0.0247-4.76-0.0102-9.52-0.0148-14.3-0.0198-9.34-0.0107-18.7-0.0278-28-0.0488v-2h36v-2h-36v-3c3.54-1.18 6.73-1.13 10.4-1.11z" fill="#FDFCFF"/>
<path transform="translate(632,302)" d="m0 0c4.42 2.21 7.07 4.44 9 9 1.15 4.59 1.72 7.74-0.688 11.9-2.78 2.48-4.83 3.96-8.61 4.21-6.14-0.538-11.1-1.92-15.7-6.15-2.28-3.75-2.53-6.62-2-11 4.16-7.28 10.1-9.11 18-8z" fill="#E87C37"/>
<path transform="translate(612 814)" d="m0 0c1.24-0.0142 2.48-0.0284 3.75-0.043 3.25 0.23 3.25 0.23 6.25 2.23 0.293 2.82 0.293 2.82 0.188 6.12-0.0271 1.1-0.0541 2.19-0.082 3.32-0.0348 0.843-0.0696 1.69-0.105 2.55h-2v4h-2v3c-11 1.73-11 1.73-17-1v-6h-2c0.66-1.65 1.32-3.3 2-5h-2c1.88-5.75 1.88-5.75 3-8 3.49-1.16 6.32-1.17 10-1.19z" fill="#FBFCFC"/>
<path transform="translate(953,267)" d="m0 0c2.85 3.07 3.85 5.28 4.69 9.38-0.979 5.16-3.8 8.19-7.69 11.6-3.93 2.43-6.5 1.97-11 1-2.56-0.899-3.65-1.56-5.31-3.69-1.37-4.6-0.183-8.3 1.88-12.5 4.72-5.45 10.3-8.29 17.4-5.81z" fill="#E87C37"/>
<path transform="translate(867,702)" d="m0 0v-2c2.38 0.75 2.38 0.75 5 2 0.33 0.681 0.66 1.36 1 2.06 0.33 0.639 0.66 1.28 1 1.94 2.56 0.812 2.56 0.812 5 1 0.625 1.88 0.625 1.88 1 4l-2 2c-0.398 1.99-0.738 3.99-1 6h-2c0.00786 1.07 0.00786 1.07 0.0159 2.15 0.021 3.26 0.0339 6.52 0.0466 9.79 0.00838 1.12 0.0168 2.23 0.0254 3.38 0.0185 6.32-0.244 12.4-1.09 18.7h-1c-1.29-4.92-1.11-9.77-1.06-14.8 0.00677-1.33 0.00677-1.33 0.0137-2.68 0.0117-2.17 0.0297-4.34 0.0488-6.51h-1v3h-2v-8h-3v8h-2v-20c-0.66-0.33-1.32-0.66-2-1v-3c-0.928-0.0928-0.928-0.0928-1.88-0.188-2.12-0.812-2.12-0.812-3.38-3.38-0.247-0.804-0.495-1.61-0.75-2.44 4.47-1.87 6.66-2.3 11 0z" fill="#FDFCFE"/>
<path transform="translate(797,194)" d="m0 0c3.63 3.54 4.31 6.72 4.56 11.6-0.153 3.76-0.251 4.98-2.62 8-3.53 1.65-6.02 2.38-9.94 2.38-3.17-1.62-5.27-3.05-7.44-5.88-0.843-3.19-0.54-4.95 0.438-8.12 4.25-6.75 6.61-10.2 15-8z" fill="#E87C37"/>
<path transform="translate(1015,448)" d="m0 0c3.59 1.2 6.22 2.31 9.06 4.81 0.938 2.19 0.938 2.19 0.562 5.19-2.08 3.85-4.6 5.55-8.62 7-6.01 0.858-9.13-0.783-14-4-0.33-0.33-0.66-0.66-1-1 0.222-3.91 0.425-6.3 2.94-9.38 3.76-2.96 6.29-2.94 11.1-2.62z" fill="#E87C37"/>
<path transform="translate(31,956)" d="m0 0c0.33 0.66 0.66 1.32 1 2 1.65-0.66 3.3-1.32 5-2v2c1.09-0.0206 2.19-0.0412 3.31-0.0625 3.69 0.0625 3.69 0.0625 6.69 1.06v3h-21v6h-24v-8c0.594-0.0501 1.19-0.1 1.8-0.152 2.73-0.234 5.47-0.479 8.2-0.723 1.4-0.118 1.4-0.118 2.83-0.238 5.58-0.507 10.8-1.37 16.2-2.89z" fill="#FDFCFF"/>
<path transform="translate(951,289)" d="m0 0h1c0.33 4.29 0.66 8.58 1 13-4 1-4 1-7 0v3h-2c-0.33-0.99-0.66-1.98-1-3h-2v3h-2v-3c-0.615 0.0838-1.23 0.168-1.86 0.254-0.808 0.102-1.62 0.204-2.45 0.309-0.801 0.104-1.6 0.209-2.43 0.316-2.26 0.121-2.26 0.121-5.26-0.879v-4l-2-1h2v-7c1.58-0.0544 3.17-0.093 4.75-0.125 0.882-0.0232 1.76-0.0464 2.67-0.0703 2.74 0.208 4.16 0.969 6.58 2.2 2.36 0.24 2.36 0.24 4.75 0.125 1.2-0.0271 1.2-0.0271 2.42-0.0547 0.905-0.0348 0.905-0.0348 1.83-0.0703 0.33-0.99 0.66-1.98 1-3z" fill="#FDFCFF"/>
<path transform="translate(813,959)" d="m0 0c2.48 1.49 2.48 1.49 5 3v-3h23v3h4v-3c2 1 2 1 5 3v-3h17v3h6v1h-118v-1h58v-3z" fill="#FBFFFF"/>
<path transform="translate(716,442)" d="m0 0h9c0.33 1.32 0.66 2.64 1 4h2c1.29 7.43 1.29 7.43 0 11-6.47 1.73-10.1-0.0442-16-3-2.24-0.686-2.24-0.686-4-1 0.66-1.32 1.32-2.64 2-4l-2-1c0.33-0.66 0.66-1.32 1-2 1.65 0.33 3.3 0.66 5 1 0.66-1.65 1.32-3.3 2-5z" fill="#FDFCFF"/>
<path transform="translate(805 858)" d="m0 0c1.59-0.0213 1.59-0.0213 3.21-0.043 2.85 0.23 2.85 0.23 5.85 2.23-3.35 2.03-5.87 2.22-9.75 2.12-0.985-0.018-1.97-0.0361-2.98-0.0547-1.12-0.0348-1.12-0.0348-2.27-0.0703v5l-1-4c-3.28 0.752-3.28 0.752-5 4v-5c-0.598 0.165-1.2 0.33-1.81 0.5-3.35 0.766-6.76 0.5-10.2 0.5-0.33 1.32-0.66 2.64-1 4h-6c-1.34 0.324-2.67 0.657-4 1-0.33-1.32-0.66-2.64-1-4-2.33 0.959-2.33 0.959-4 4v-6h-4c-0.33-0.99-0.66-1.98-1-3 1.11 0.00524 2.22 0.0105 3.36 0.0159 4.11 0.0181 8.22 0.0296 12.3 0.0391 1.78 0.00504 3.56 0.0119 5.34 0.0205 2.56 0.0121 5.11 0.0178 7.67 0.0222 0.799 0.00516 1.6 0.0103 2.42 0.0156 4.87 4.96e-4 8.94-1.27 13.8-1.3z" fill="#FBFEFE"/>
<path transform="translate(1515 964)" d="m0 0c1.22 0.00333 1.22 0.00333 2.47 0.00673 1.38 1.13e-4 1.38 1.13e-4 2.79 2.29e-4 1 0.00516 2 0.0103 3.03 0.0156 1.02 0.00141 2.04 0.00283 3.09 0.00429 3.27 0.00562 6.54 0.0182 9.81 0.0309 2.21 0.00501 4.42 0.00958 6.63 0.0137 5.43 0.0111 10.9 0.0278 16.3 0.0488v2h-4v2c-8.18 0.0694-16.4 0.123-24.5 0.155-3.8 0.0157-7.6 0.0369-11.4 0.0709-3.66 0.0325-7.33 0.0505-11 0.0583-1.4 0.00555-2.8 0.0164-4.2 0.0326-1.96 0.0217-3.91 0.023-5.87 0.0234-1.67 0.00999-1.67 0.00999-3.38 0.0202-0.869-0.119-1.74-0.238-2.63-0.361-0.66-0.99-1.32-1.98-2-3 0.661 0.00524 1.32 0.0105 2 0.0159 2.98 0.0207 5.96 0.0338 8.93 0.0466 1.04 0.00838 2.08 0.0168 3.15 0.0254 0.989 0.00322 1.98 0.00645 3 0.00977 0.916 0.00524 1.83 0.0105 2.78 0.0159 2.46-0.131 2.63-1.08 5-1.23z" fill="#FBFEFF"/>
<path transform="translate(832,694)" d="m0 0h2v3h4v35h-2c-0.66 0.66-1.32 1.32-2 2-0.33-3.3-0.66-6.6-1-10h-1c-0.0735-1.32-0.0735-1.32-0.148-2.67-0.0748-1.16-0.15-2.32-0.227-3.52-0.0696-1.15-0.139-2.3-0.211-3.48-0.39-3.14-1.19-5.44-2.41-8.33 0.375-2.12 0.375-2.12 1-4v-3c0.626-1.68 1.29-3.35 2-5z" fill="#FDFCFE"/>
<path transform="translate(755,576)" d="m0 0c0.66 0.33 1.32 0.66 2 1-0.153 0.96-0.307 1.92-0.465 2.91-0.642 4.5-0.875 8.99-1.1 13.5-0.0432 0.827-0.0864 1.65-0.131 2.51-0.105 2.02-0.206 4.04-0.307 6.06h-1v-6h-2v-4h-3c-0.33 1.32-0.66 2.64-1 4v-4c-1.98 0.33-3.96 0.66-6 1-1.75-3.03-2.25-5.2-2.19-8.69 0.00645-0.788 0.0129-1.58 0.0195-2.39 0.168-1.93 0.168-1.93 1.17-2.93 8.19-0.269 8.19-0.269 12 1v-2h2v-2z" fill="#FDFCFF"/>
<path transform="translate(666,669)" d="m0 0h2c0.33 0.99 0.66 1.98 1 3 0.66 0.33 1.32 0.66 2 1v-4h2c1.3 3.82 0.894 7.28 0.562 11.2-0.102 1.26-0.204 2.53-0.309 3.83-0.0838 0.964-0.168 1.93-0.254 2.92-1.65 0.66-3.3 1.32-5 2v2h-2c-0.33-0.66-0.66-1.32-1-2h-2v2h-2c0.66-1.65 1.32-3.3 2-5h-2l3-9v-4h2v-4z" fill="#FDFCFF"/>
<path transform="translate(647 561)" d="m0 0c2.81 1.06 2.81 1.06 4.81 3.31 1 2.75 1 2.75 0.5 5.38-1.87 2.96-3.26 4.05-6.5 5.38-3.19-0.127-5.22-0.521-7.94-2.19-1.06-1.81-1.06-1.81-1.12-4.75 1.06-3.06 1.06-3.06 3.75-5.5 3.31-1.56 3.31-1.56 6.5-1.62z" fill="#E87C37"/>
<path transform="translate(708,410)" d="m0 0h10v2h2c0.33 3.96 0.66 7.92 1 12h-3c-0.66-2.31-1.32-4.62-2-7 0.0206 1.11 0.0412 2.23 0.0625 3.38-0.0625 3.62-0.0625 3.62-1.06 5.62 0.087 1.71 0.241 3.42 0.438 5.12 0.153 1.37 0.153 1.37 0.309 2.76 0.0838 0.699 0.168 1.4 0.254 2.12h-2c-0.133-0.736-0.266-1.47-0.402-2.23-0.265-1.46-0.265-1.46-0.535-2.96-0.174-0.963-0.348-1.93-0.527-2.92-0.488-2.64-1-5.27-1.54-7.89h-2c-1-6.62-1-6.62-1-10z" fill="#FEFCFF"/>
<path transform="translate(899,685)" d="m0 0v3c0.516-0.206 1.03-0.413 1.56-0.625 3.47-0.534 6.14 0.548 9.44 1.62-0.33 0.66-0.66 1.32-1 2-2.07 0.414-2.07 0.414-4.56 0.625-0.826 0.0748-1.65 0.15-2.5 0.227-0.957 0.0735-0.957 0.0735-1.93 0.148 2.64 0.33 5.28 0.66 8 1v3c-3.43 3.43-6.17 4.68-11 5-0.99-0.33-1.98-0.66-3-1v-8c1.32-0.66 2.64-1.32 4-2-2.48-0.99-2.48-0.99-5-2v-2c2-1 2-1 6-1z" fill="#FDFCFF"/>
<path transform="translate(826,894)" d="m0 0h3v5h7c0.33-1.32 0.66-2.64 1-4v4h4c0.33-1.32 0.66-2.64 1-4v4h2v3c-2.31-0.33-4.62-0.66-7-1v3h7v3c-1.09-0.186-2.19-0.371-3.31-0.562-3.62-0.695-3.62-0.695-6.69 0.562-0.33 0.99-0.66 1.98-1 3-0.66-1.65-1.32-3.3-2-5v2h-2c-0.33 0.99-0.66 1.98-1 3-0.575-3.73-1-7.21-1-11h-2c0.33-1.65 0.66-3.3 1-5z" fill="#FDFCFF"/>
<path transform="translate(596,673)" d="m0 0c0.361 1.64 0.714 3.29 1.06 4.94 0.197 0.917 0.394 1.83 0.598 2.78 0.112 0.754 0.224 1.51 0.34 2.29-1 1-1 1-4.19 1.19-3.68-0.181-6.4-0.856-9.81-2.19-0.312-3.31-0.312-3.31 0-7 3.82-3.71 7.03-3.07 12-2z" fill="#6FB9F5"/>
<path transform="translate(1046,667)" d="m0 0h6c0.33 3.96 0.66 7.92 1 12-0.99 0.33-1.98 0.66-3 1-0.66-0.33-1.32-0.66-2-1-0.99 0.33-1.98 0.66-3 1-2.69-0.438-2.69-0.438-5-1v-10h6v-2z" fill="#FDFCFF"/>
<path transform="translate(477,595)" d="m0 0h2c0.33 1.32 0.66 2.64 1 4 0.66-1.32 1.32-2.64 2-4h2c0.224 1.73 0.428 3.46 0.625 5.19 0.116 0.963 0.232 1.93 0.352 2.92 0.0254 3.14-0.633 5.09-1.98 7.89h-9c-0.333-6.21 0.55-10.3 3-16z" fill="#FBFCFC"/>
<path transform="translate(789,704)" d="m0 0c0.66 0.33 1.32 0.66 2 1v3c2.97-0.66 5.94-1.32 9-2v4c-2.64 0.33-5.28 0.66-8 1-0.33 1.65-0.66 3.3-1 5 0.66 0.33 1.32 0.66 2 1-1.62 0.222-3.25 0.427-4.88 0.625-0.905 0.116-1.81 0.232-2.74 0.352-0.786 0.00773-1.57 0.0155-2.38 0.0234-2-2-2-2-2.38-4.38 0.49-3.43 1.71-4.49 4.38-6.62 0.99-0.33 1.98-0.66 3-1 0.33-0.66 0.66-1.32 1-2z" fill="#FDFCFE"/>
<path transform="translate(819,893)" d="m0 0c1.65 0.33 3.3 0.66 5 1v5h-3v2h-5v4h5v1h-5v4h-3v-2h-3v-2h-2c0.278-0.897 0.278-0.897 0.562-1.81 0.658-2.35 0.658-2.35-0.562-5.19 0.33-0.66 0.66-1.32 1-2h9c0.33-1.32 0.66-2.64 1-4z" fill="#FEFCFF"/>
<path transform="translate(971 282)" d="m0 0c2.77 1.09 3.73 2.16 5.06 4.81-0.375 2.56-0.375 2.56-2 5-3.55 2.01-5.84 3.12-9.94 2.69-0.681-0.227-1.36-0.454-2.06-0.688-0.676-1.77-0.676-1.77-1-4 1.14-1.89 1.14-1.89 2.81-3.69 0.543-0.602 1.09-1.2 1.64-1.82 1.89-1.82 2.83-2.56 5.48-2.3z" fill="#E87C37"/>
<path transform="translate(885,954)" d="m0 0h41v3h-41v-3z" fill="#FBFEFF"/>
<path transform="translate(727,715)" d="m0 0c1.26-0.0206 2.52-0.0412 3.81-0.0625 0.708-0.0116 1.42-0.0232 2.14-0.0352 2.04 0.0977 2.04 0.0977 5.04 1.1v2h2v11c-0.99-1.32-1.98-2.64-3-4h-3v-2h-2v2c-1.65-0.33-3.3-0.66-5-1v-9z" fill="#FDFCFF"/>
<path transform="translate(870,408)" d="m0 0h1c0.33 2.64 0.66 5.28 1 8h2v-7c0.66-0.33 1.32-0.66 2-1v15c-4.22 2.11-6.4 2.18-11 2-0.33-0.99-0.66-1.98-1-3 0.99-0.33 1.98-0.66 3-1l-3-3c0.66-0.66 1.32-1.32 2-2h3c-0.0206-1.13-0.0412-2.27-0.0625-3.44 0.0625-3.56 0.0625-3.56 1.06-4.56z" fill="#FDFCFF"/>
<path transform="translate(741,857)" d="m0 0h4v2c1.42-0.0309 1.42-0.0309 2.88-0.0625 3.12 0.0625 3.12 0.0625 5.12 1.06 0.414 2.29 0.414 2.29 0.625 5.06 0.0748 0.919 0.15 1.84 0.227 2.79 0.049 0.71 0.098 1.42 0.148 2.15-2.34-0.314-4.67-0.65-7-1-0.763-0.0825-1.53-0.165-2.31-0.25-1.69-0.75-1.69-0.75-2.94-2.94-0.814-3.05-0.896-5.67-0.75-8.81z" fill="#FBFFFF"/>
<path transform="translate(1040,741)" d="m0 0c0.66 0.33 1.32 0.66 2 1 0.454 6.46-0.406 9.61-4 15h-5c0.66-0.99 1.32-1.98 2-3l-2-1v-2c-0.99-0.33-1.98-0.66-3-1v-2c2.19-1.73 2.19-1.73 5-3.62 0.928-0.632 1.86-1.26 2.81-1.91 1.08-0.723 1.08-0.723 2.19-1.46z" fill="#FBFCFC"/>
<path transform="translate(931,373)" d="m0 0 2 1v2c3.63 1.98 7.26 3.96 11 6v2c0.99 0.33 1.98 0.66 3 1-0.33 0.99-0.66 1.98-1 3-5.79-1.37-11.4-3.05-17-5-1.06-3.38-1.21-4.58 0.438-7.81 0.516-0.722 1.03-1.44 1.56-2.19z" fill="#FCFCFC"/>
<path transform="translate(775,259)" d="m0 0c1.5 1.38 1.5 1.38 3 3v2l2 1c0.82 2.24 1.53 4.52 2.19 6.81 0.365 1.24 0.73 2.49 1.11 3.77 0.639 3.09 0.841 4.55-0.293 7.42-0.454-0.495-0.908-0.99-1.38-1.5-1.5-1.73-1.5-1.73-3.62-1.5-4.78-13.4-4.78-13.4-3-21z" fill="#FBFCFC"/>
<path transform="translate(834,706)" d="m0 0c4.33 4.33 4.1 11.2 4.14 17-0.0163 3-0.065 6-0.136 9.01h-2c-0.66 0.66-1.32 1.32-2 2-0.33-3.3-0.66-6.6-1-10h-1c-0.054-2.44-0.0937-4.87-0.125-7.31-0.0168-0.69-0.0335-1.38-0.0508-2.09-0.0364-3.77 0.032-5.38 2.18-8.6z" fill="#FCFCFC"/>
<path transform="translate(631,706)" d="m0 0c1.49 2.99 0.406 4.95-0.438 8.12-0.287 1.1-0.575 2.19-0.871 3.32-0.228 0.843-0.456 1.69-0.691 2.55h3c0.33 1.98 0.66 3.96 1 6h4v5c-7.75 1-7.75 1-10 1 0.0812-3.4 0.194-6.79 0.312-10.2 0.0226-0.96 0.0451-1.92 0.0684-2.91 0.335-8.79 0.335-8.79 3.62-12.9z" fill="#FDFCFF"/>
<path transform="translate(1035,753)" d="m0 0v3c0.66 0.66 1.32 1.32 2 2-6.14 5.57-6.14 5.57-11 6v-2h-2c0.66-1.32 1.32-2.64 2-4l-2-1c0.33-0.99 0.66-1.98 1-3 3.21-1.61 6.44-1.06 10-1z" fill="#FDFCFF"/>
<path transform="translate(878,714)" d="m0 0h3c0.0582 4.54 0.0937 9.08 0.125 13.6 0.0168 1.29 0.0335 2.57 0.0508 3.89 0.00645 1.24 0.0129 2.49 0.0195 3.77 0.0105 1.14 0.0209 2.28 0.0317 3.46-0.237 3.39-1.02 6.09-2.23 9.25-0.66-0.33-1.32-0.66-2-1v-19h2c-0.33-4.62-0.66-9.24-1-14z" fill="#FDFCFE"/>
<path transform="translate(1085,713)" d="m0 0c0.227 0.619 0.454 1.24 0.688 1.88 1.69 2.74 3.3 3.18 6.31 4.12-0.66 1.98-1.32 3.96-2 6-6.05 0.195-6.05 0.195-8 0-0.66-0.66-1.32-1.32-2-2 0.0329-2.73 0.564-5.3 1-8 0.33 0.66 0.66 1.32 1 2h3v-4z" fill="#FDFCFF"/>
<path transform="translate(893,442)" d="m0 0c5.75 1.75 5.75 1.75 8 4v4c-4.22 4-4.22 4-7 4-0.33 0.66-0.66 1.32-1 2-0.993-2.98-1.13-5.02-1.12-8.12-0.00258-0.889-0.00516-1.78-0.00781-2.7 0.133-2.18 0.133-2.18 1.13-3.18z" fill="#FCFCFC"/>
<path transform="translate(924,699)" d="m0 0v11h-8c0.33-0.99 0.66-1.98 1-3h2v-2h-3c0.33-1.32 0.66-2.64 1-4h-2v-2c3.48-1.16 5.46-0.708 9 0z" fill="#FDFCFF"/>
<path transform="translate(956,712)" d="m0 0h5v2h2v11c-0.66-1.32-1.32-2.64-2-4h-2v5c-2.35-2.35-2.96-3.96-3.1-7.26 0.0116-0.801 0.0232-1.6 0.0352-2.43 0.00902-0.808 0.018-1.62 0.0273-2.45 0.0116-0.615 0.0232-1.23 0.0352-1.86z" fill="#FBFCFC"/>
<path transform="translate(979,372)" d="m0 0v3h-2v3c-0.887 0.413-1.77 0.825-2.69 1.25-5.55 2.93-5.55 2.93-9.31 7.75h-2c0.33-0.99 0.66-1.98 1-3-0.99-0.66-1.98-1.32-3-2 1.01-0.58 1.01-0.58 2.05-1.17 0.892-0.521 1.78-1.04 2.7-1.58 0.882-0.51 1.76-1.02 2.67-1.55 2.65-1.61 2.65-1.61 4.66-3.91 1.92-1.8 1.92-1.8 5.92-1.8z" fill="#FCFCFC"/>
<path transform="translate(815,612)" d="m0 0 4 1v17c-0.99-0.33-1.98-0.66-3-1v-5h-2c-0.143-8.57-0.143-8.57 1-12z" fill="#FEFCFF"/>
<path transform="translate(679,321)" d="m0 0c2.88 0.312 2.88 0.312 6 1 2 3 2 3 1.94 4.88-1.34 3.04-3.52 4.89-5.94 7.12-0.99-1.32-1.98-2.64-3-4 0.66-0.66 1.32-1.32 2-2-0.33-0.99-0.66-1.98-1-3v-4z" fill="#FCFCFC"/>
<path transform="translate(592,659)" d="m0 0h3v5h2c0.33-1.65 0.66-3.3 1-5h2v5c0.99 0.33 1.98 0.66 3 1h-3c-0.33 1.32-0.66 2.64-1 4-0.66-0.99-1.32-1.98-2-3l1-1h-3v4c0.99 0.33 1.98 0.66 3 1h-6v-11z" fill="#FDFCFF"/>
<path transform="translate(779,895)" d="m0 0v2h-4v9h-6c-0.125-7.75-0.125-7.75 1-10 3.07-0.667 5.86-1 9-1z" fill="#FEFCFF"/>
<path transform="translate(795,894)" d="m0 0c1.32 0.33 2.64 0.66 4 1v5c0.186-1.21 0.186-1.21 0.375-2.44 0.206-0.846 0.413-1.69 0.625-2.56 0.66-0.33 1.32-0.66 2-1 0.66 0.33 1.32 0.66 2 1v5c0.99 0.33 1.98 0.66 3 1h-4c-0.33 0.66-0.66 1.32-1 2h-6c-0.33-2.97-0.66-5.94-1-9z" fill="#FEFCFF"/>
<path transform="translate(1053,718)" d="m0 0h1v10h2c0.049-0.638 0.098-1.28 0.148-1.93 0.0748-0.826 0.15-1.65 0.227-2.5 0.0696-0.824 0.139-1.65 0.211-2.5 0.137-0.682 0.273-1.36 0.414-2.07 0.66-0.33 1.32-0.66 2-1v10l2 1h-3v2h-2v-2h-3v2h-2c0.14-1.98 0.287-3.96 0.438-5.94 0.0812-1.1 0.162-2.2 0.246-3.34 0.316-2.72 0.316-2.72 1.32-3.72z" fill="#FDFCFF"/>
<path transform="translate(626,562)" d="m0 0c0.66 1.32 1.32 2.64 2 4 0.33-0.66 0.66-1.32 1-2h2c0.33-0.66 0.66-1.32 1-2v6c-1.32 0.33-2.64 0.66-4 1v4h-2v2h-2v-2c-0.66-0.33-1.32-0.66-2-1 0.66-1.32 1.32-2.64 2-4-0.66-0.33-1.32-0.66-2-1 0.66-0.99 1.32-1.98 2-3h2v-2z" fill="#FEFCFF"/>
<path transform="translate(581 387)" d="m0 0c2.31 1.06 2.31 1.06 3.62 3.12 0.34 0.959 0.34 0.959 0.688 1.94-1.06 1.56-1.06 1.56-3 3-6.33-0.333-6.33-0.333-9-3 4.25-4.98 4.25-4.98 7.69-5.06z" fill="#E87C37"/>
<path transform="translate(730,577)" d="m0 0v3c-1.58 0.701-3.16 1.39-4.75 2.06-0.882 0.383-1.76 0.766-2.67 1.16-2.73 0.823-3.95 0.755-6.58-0.223 0.33-0.99 0.66-1.98 1-3 0.66-0.33 1.32-0.66 2-1v-2c7.43-1.29 7.43-1.29 11 0z" fill="#FCFCFC"/>
<path transform="translate(745,203)" d="m0 0c2 3 2 3 1.62 5.69-0.206 0.763-0.413 1.53-0.625 2.31-6.75 0.125-6.75 0.125-9-1 1.56-4.57 2.73-7 8-7z" fill="#E87C37"/>
<path transform="translate(892,711)" d="m0 0h2c-0.33 1.98-0.66 3.96-1 6 0.66 0.33 1.32 0.66 2 1h-2c0.33 5.61 0.66 11.2 1 17-4.25-5.66-4.5-10.1-4-17 0.51-2.43 1.2-4.64 2-7z" fill="#FCFCFC"/>
<path transform="translate(820,612)" d="m0 0c1.32 0.33 2.64 0.66 4 1v17c-0.99-0.33-1.98-0.66-3-1-0.33-5.61-0.66-11.2-1-17z" fill="#FEFCFF"/>
<path transform="translate(760,576)" d="m0 0c0.66 0.33 1.32 0.66 2 1 0 4.15-0.463 8.14-1 12.2-0.0954 0.745-0.191 1.49-0.289 2.26-0.235 1.83-0.473 3.66-0.711 5.49-0.99-0.33-1.98-0.66-3-1 0.66-1.65 1.32-3.3 2-5h-2c-1.21-4.94-0.629-8.21 1-13h2v-2z" fill="#FEFCFF"/>
<path transform="translate(625,632)" d="m0 0h8v2h-4v3h4c0.33 1.65 0.66 3.3 1 5-0.66-0.33-1.32-0.66-2-1v-2h-3c-0.33 0.99-0.66 1.98-1 3-0.99-1.65-1.98-3.3-3-5 0.66-0.33 1.32-0.66 2-1-0.66-1.32-1.32-2.64-2-4z" fill="#FCFCFC"/>
<path transform="translate(1587,823)" d="m0 0h2c1.07 6.03 1.1 11.9 1 18h-2c-1.59-3.19-1.1-6.63-1.06-10.1 0.00451-0.754 0.00902-1.51 0.0137-2.29 0.0118-1.86 0.0297-3.73 0.0488-5.59z" fill="#FEFCFF"/>
<path transform="translate(818,588)" d="m0 0c0.99 0.33 1.98 0.66 3 1h-2c0.66 0.639 1.32 1.28 2 1.94 2.65 4.06 2.57 7.34 2 12.1-0.33 0.66-0.66 1.32-1 2h-2c0.33-2.64 0.66-5.28 1-8h-2c-0.33-2.97-0.66-5.94-1-9z" fill="#FCFCFC"/>
<path transform="translate(882,395)" d="m0 0c1.39 4.18-0.177 6.13-2 10-0.66-0.66-1.32-1.32-2-2l-4 2c-0.33-0.99-0.66-1.98-1-3 2.97-2.31 5.94-4.62 9-7z" fill="#FCFCFC"/>
<path transform="translate(953,724)" d="m0 0c0.75 1.94 0.75 1.94 1 4-0.33 0.66-0.66 1.32-1 2-2.64-0.33-5.28-0.66-8-1 0.66-0.33 1.32-0.66 2-1v-2c-0.66-0.66-1.32-1.32-2-2 3.29-0.8 4.71-1.1 8 0z" fill="#FCFCFC"/>
<path transform="translate(848,493)" d="m0 0c0.33 1.32 0.66 2.64 1 4-0.99 0.33-1.98 0.66-3 1-1.21 2-1.21 2-2 4-2.97-0.495-2.97-0.495-6-1v-2c4.5-3 4.5-3 6-3 0.99-0.33 1.98-0.66 3-1 0.33-0.66 0.66-1.32 1-2z" fill="#FEFCFF"/>
<path transform="translate(813,588)" d="m0 0c0.99 0.33 1.98 0.66 3 1h-2c0.0232 0.904 0.0464 1.81 0.0703 2.74 0.018 1.18 0.0361 2.36 0.0547 3.57 0.0232 1.17 0.0464 2.34 0.0703 3.55-0.195 3.14-0.195 3.14-2.2 6.14h-2v3h-2c0.33-1.32 0.66-2.64 1-4h2c0.66-5.28 1.32-10.6 2-16z" fill="#FEFCFF"/>
<path transform="translate(937,341)" d="m0 0h2c0.33 1.98 0.66 3.96 1 6h2c-0.66 1.65-1.32 3.3-2 5h-3c-1.35-4.05-0.621-6.79 0-11z" fill="#FCFCFC"/>
<path transform="translate(777,903)" d="m0 0h4c0.125 7.75 0.125 7.75-1 10h-3v-10z" fill="#FCFCFC"/>
<path transform="translate(815,591)" d="m0 0c2.34 1.83 2.99 2.96 3.81 5.88 0.201 3.34-0.33 5.16-1.81 8.12h-2c0.33-2.64 0.66-5.28 1-8h-2c-0.0427-1.67-0.0406-3.33 0-5l1-1z" fill="#FCFCFC"/>
<path transform="translate(925,700)" d="m0 0h4v10c-1.32-0.33-2.64-0.66-4-1v-9z" fill="#FEFCFF"/>
<path transform="translate(830,530)" d="m0 0h16v2c-5.05 1.04-9.87 1.1-15 1-0.33-0.99-0.66-1.98-1-3z" fill="#FBFFFF"/>
<path transform="translate(1021,642)" d="m0 0c1.42 0.142 2.83 0.289 4.25 0.438 1.18 0.122 1.18 0.122 2.39 0.246 2.18 0.293 4.24 0.737 6.36 1.32v2c-4.29-0.33-8.58-0.66-13-1v-3z" fill="#FBFFFF"/>
<path transform="translate(735,397)" d="m0 0c-3 2-3 2-5 2-0.268 0.639-0.536 1.28-0.812 1.94-1.19 2.06-1.19 2.06-4.19 3.06v-2c-0.66-0.66-1.32-1.32-2-2 1-2 1-2 2.62-2.62 3.14-0.496 6.2-0.436 9.38-0.375z" fill="#FCFCFC"/>
<path transform="translate(422,960)" d="m0 0h4c0.99 0.66 1.98 1.32 3 2h-16v-2c3.44-0.861 5.61-0.983 9 0z" fill="#FEFCFF"/>
<path transform="translate(1081,728)" d="m0 0 2 1v-1h5c-0.812 2.94-0.812 2.94-2 6-0.99 0.33-1.98 0.66-3 1v-2h-2v-5z" fill="#FCFCFC"/>
<path transform="translate(1068,628)" d="m0 0c1.32 1.32 2.64 2.64 4 4-0.66 0.66-1.32 1.32-2 2 0.66 1.32 1.32 2.64 2 4h-3v2c-0.99-0.33-1.98-0.66-3-1h2c-0.186-0.701-0.371-1.4-0.562-2.12-0.489-3.21-0.0998-5.71 0.562-8.88z" fill="#FCFCFC"/>
<path transform="translate(933,954)" d="m0 0h10v3h-10v-3z" fill="#FBFFFF"/>
<path transform="translate(818,954)" d="m0 0h10v3h-10v-3z" fill="#FBFFFF"/>
<path transform="translate(590,820)" d="m0 0h3v10h-3v-10z" fill="#FCFCFC"/>
<path transform="translate(823,724)" d="m0 0h6c0.33 1.32 0.66 2.64 1 4-2.91 1.26-4.8 2-8 2 0.33-0.99 0.66-1.98 1-3 0.66-0.33 1.32-0.66 2-1l-2-2z" fill="#FCFCFC"/>
<path transform="translate(846,301)" d="m0 0h1v16c-3-3-3-3-3.11-5.38 0.119-0.866 0.237-1.73 0.359-2.62 0.108-0.866 0.217-1.73 0.328-2.62 0.422-2.38 0.422-2.38 1.42-5.38z" fill="#FEFCFF"/>
<path transform="translate(955,288)" d="m0 0c1.5 1.12 1.5 1.12 3 3 0.188 3.19 0.188 3.19 0 6h-4c-0.625-2.81-0.625-2.81-1-6 0.66-0.99 1.32-1.98 2-3z" fill="#FEFCFF"/>
<path transform="translate(631,827)" d="m0 0c0.33 0.66 0.66 1.32 1 2 0.66 0.33 1.32 0.66 2 1-0.144 0.681-0.289 1.36-0.438 2.06-0.424 2.21-0.739 4.45-1 6.69-0.186 1.07-0.371 2.14-0.562 3.25-0.99 0.495-0.99 0.495-2 1-1.13-3.38-0.8-5.56 0-9 0.344-2.33 0.679-4.66 1-7z" fill="#FCFCFC"/>
<path transform="translate(892,680)" d="m0 0h7v4c-2.31 0.33-4.62 0.66-7 1v-5z" fill="#FEFCFF"/>
<path transform="translate(631,574)" d="m0 0c1.09 0.516 2.19 1.03 3.31 1.56 3.55 1.84 3.55 1.84 6.69 0.438 0.33 0.66 0.66 1.32 1 2h-2v2h-6v-3h-3v-3z" fill="#FCFCFC"/>
<path transform="translate(829,704)" d="m0 0h5v13h-1c-0.186-1.39-0.186-1.39-0.375-2.81-0.44-3.33-0.44-3.33-2.62-6.19-0.625-2.19-0.625-2.19-1-4z" fill="#FBFEFF"/>
<path transform="translate(853,704)" d="m0 0c0.99 0.33 1.98 0.66 3 1-0.33 0.33-0.66 0.66-1 1-0.233 1.68-0.413 3.37-0.562 5.06-0.126 1.38-0.126 1.38-0.254 2.79-0.0606 0.71-0.121 1.42-0.184 2.15h-2c-1.12-4.69-0.806-7.54 1-12z" fill="#FEFCFF"/>
<path transform="translate(483,635)" d="m0 0h6c0.33 1.32 0.66 2.64 1 4h-7v-4z" fill="#FBFEFE"/>
<path transform="translate(860,526)" d="m0 0h2v4h2v4h2c-0.33 0.99-0.66 1.98-1 3-0.66-1.32-1.32-2.64-2-4h-3v-7z" fill="#FEFCFF"/>
<path transform="translate(799,701)" d="m0 0c0.33 1.32 0.66 2.64 1 4-2.81 0.625-2.81 0.625-6 1-0.99-0.66-1.98-1.32-3-2 2.92-1.95 4.63-2.45 8-3z" fill="#FEFCFF"/>
<path transform="translate(807,489)" d="m0 0c1.41 2.64 2.37 5.07 3 8h-4c-2-2-2-2-3-5 0.99-0.33 1.98-0.66 3-1 0.33-0.66 0.66-1.32 1-2z" fill="#F8E3D6"/>
<path transform="translate(810,290)" d="m0 0h2c0.33 0.33 0.66 0.66 1 1 0.66-0.33 1.32-0.66 2-1 0.33 1.65 0.66 3.3 1 5h-10v-1h5c-0.33-1.32-0.66-2.64-1-4z" fill="#FEFCFF"/>
</svg>
